<svg width="49" height="49" viewBox="0 0 49 49" fill="none" xmlns="http://www.w3.org/2000/svg">
<rect x="0.5" y="0.5" width="48" height="48" rx="24" fill="#EEF2FF"/>
<path d="M27.5 14.5V24.5C27.5 25.6 26.6 26.5 25.5 26.5H14.5V18.5C14.5 16.29 16.29 14.5 18.5 14.5H27.5Z" stroke="#6366F1" stroke-width="1.5" stroke-linecap="round" stroke-linejoin="round"/>
<path d="M34.5 26.5V29.5C34.5 31.16 33.16 32.5 31.5 32.5H30.5C30.5 31.4 29.6 30.5 28.5 30.5C27.4 30.5 26.5 31.4 26.5 32.5H22.5C22.5 31.4 21.6 30.5 20.5 30.5C19.4 30.5 18.5 31.4 18.5 32.5H17.5C15.84 32.5 14.5 31.16 14.5 29.5V26.5H25.5C26.6 26.5 27.5 25.6 27.5 24.5V17.5H29.34C30.06 17.5 30.72 17.89 31.08 18.51L32.79 21.5H31.5C30.95 21.5 30.5 21.95 30.5 22.5V25.5C30.5 26.05 30.95 26.5 31.5 26.5H34.5Z" stroke="#6366F1" stroke-width="1.5" stroke-linecap="round" stroke-linejoin="round"/>
<path d="M20.5 34.5C21.6046 34.5 22.5 33.6046 22.5 32.5C22.5 31.3954 21.6046 30.5 20.5 30.5C19.3954 30.5 18.5 31.3954 18.5 32.5C18.5 33.6046 19.3954 34.5 20.5 34.5Z" stroke="#6366F1" stroke-width="1.5" stroke-linecap="round" stroke-linejoin="round"/>
<path d="M28.5 34.5C29.6046 34.5 30.5 33.6046 30.5 32.5C30.5 31.3954 29.6046 30.5 28.5 30.5C27.3954 30.5 26.5 31.3954 26.5 32.5C26.5 33.6046 27.3954 34.5 28.5 34.5Z" stroke="#6366F1" stroke-width="1.5" stroke-linecap="round" stroke-linejoin="round"/>
<path d="M34.5 24.5V26.5H31.5C30.95 26.5 30.5 26.05 30.5 25.5V22.5C30.5 21.95 30.95 21.5 31.5 21.5H32.79L34.5 24.5Z" stroke="#6366F1" stroke-width="1.5" stroke-linecap="round" stroke-linejoin="round"/>
</svg>
