<svg width="309" height="98" viewBox="0 0 309 98" fill="none" xmlns="http://www.w3.org/2000/svg">
<rect x="11.8472" y="3" width="297.898" height="72.8978" rx="36.4489" transform="rotate(4.12568 11.8472 3)" fill="#FFDE9F"/>
<g filter="url(#filter0_d_2151_5323)">
<rect x="19.2509" y="11.5549" width="56.8978" height="56.8978" rx="28.4489" transform="rotate(4.12568 19.2509 11.5549)" fill="#6B6CFE" shape-rendering="crispEdges"/>
<path d="M51.8102 37.9761C51.2716 37.9372 50.8571 37.4584 50.896 36.9198L51.0268 35.1069C51.1263 33.7276 50.6318 32.345 49.6744 31.3384C48.7048 30.3177 47.3961 29.7875 45.9679 29.8165C43.5872 29.8693 41.3372 32.1367 41.1553 34.659L41.0634 35.9332C41.0245 36.4718 40.5457 36.8863 40.007 36.8474C39.4684 36.8086 39.054 36.3297 39.0929 35.7911L39.1857 34.5037C39.4406 30.9699 42.5263 27.9176 45.9261 27.8328C47.9099 27.791 49.757 28.5448 51.1064 29.9759C52.4444 31.3797 53.1375 33.3048 52.9973 35.249L52.8665 37.0619C52.8277 37.6005 52.3488 38.0149 51.8102 37.9761Z" fill="white"/>
<path d="M48.5017 56.3831L40.6197 55.8146C34.5505 55.3768 33.6245 52.4709 33.5335 49.7045L33.1159 41.7646C33.0737 40.3354 33.168 38.2954 34.6573 36.871C35.9343 35.6426 37.9372 35.1533 40.7747 35.3579L51.2841 36.116C54.1348 36.3216 56.0457 37.1065 57.121 38.4914C58.3773 40.1138 58.1911 42.1471 57.9461 43.5292L56.3914 51.3533C55.9043 54.078 54.5708 56.8209 48.5017 56.3831ZM40.6326 37.3284C38.4125 37.1683 36.8574 37.4919 36.0198 38.303C35.3249 38.966 35.0361 40.0412 35.0893 41.6824L35.507 49.6224C35.5787 51.7404 36.0316 53.5161 40.7609 53.8572L48.6429 54.4258C53.3721 54.7669 54.0742 53.0877 54.4482 51.015L56.003 43.191C56.2893 41.6006 56.1578 40.4951 55.5662 39.7261C54.8546 38.7901 53.3621 38.2466 51.142 38.0865L40.6326 37.3284Z" fill="white"/>
<path d="M49.9631 43.8117C49.2274 43.7586 48.6789 43.1248 48.731 42.4023C48.7832 41.6798 49.417 41.1313 50.1395 41.1834C50.862 41.2355 51.4105 41.8693 51.3584 42.5918C51.3063 43.3143 50.6856 43.8638 49.9631 43.8117Z" fill="white"/>
<path d="M40.7674 43.1483C40.0318 43.0953 39.4833 42.4615 39.5354 41.739C39.5875 41.0164 40.2213 40.4679 40.9438 40.52C41.6663 40.5722 42.2148 41.206 42.1627 41.9285C42.1106 42.651 41.4899 43.2005 40.7674 43.1483Z" fill="white"/>
</g>
<path d="M91.9545 53.3425L100.616 37.0034L102.292 37.1243L108.519 54.5374L106.485 54.3906L104.928 49.9472L96.1432 49.3135L93.9892 53.4893L91.9545 53.3425ZM101.265 39.3601L96.9805 47.7136L104.353 48.2454L101.312 39.3636L101.265 39.3601ZM110.259 54.6629L110.99 44.5372L108.692 44.3714L108.8 42.8634L111.098 43.0291L111.128 42.6222C111.239 41.0742 111.707 39.9289 112.531 39.1862C113.37 38.4447 114.599 38.0842 116.218 38.1047L117.155 38.1242L117.215 39.6204L116.109 39.6128C115.114 39.6212 114.375 39.8646 113.891 40.3431C113.423 40.8227 113.154 41.5492 113.084 42.5227L113.037 43.169L116.389 43.4107L116.28 44.9188L112.929 44.6771L112.198 54.8028L110.259 54.6629ZM116.899 55.1418L117.63 45.0162L115.332 44.8504L115.44 43.3423L117.738 43.5081L117.768 43.1011C117.879 41.5532 118.347 40.4078 119.171 39.6652C120.01 38.9236 121.239 38.5631 122.858 38.5836L123.747 38.5996L123.758 40.1164L122.749 40.0917C121.755 40.0842 121.016 40.3276 120.531 40.822C120.063 41.3016 119.794 42.0281 119.724 43.0016L119.677 43.6479L126.859 44.1659L126.019 55.7997L124.081 55.6598L124.811 45.5342L119.569 45.156L118.838 55.2817L116.899 55.1418ZM124.913 41.1141L125.07 38.9357L127.44 39.1067L127.283 41.285L124.913 41.1141ZM132.242 56.4651C131.061 56.3799 130.192 55.9724 129.635 55.2424C129.095 54.4976 128.873 53.463 128.969 52.1384L129.908 39.1162L131.847 39.2561L130.918 52.1346C130.795 53.8422 131.412 54.7449 132.768 54.8428C133.167 54.8715 133.53 54.8496 133.856 54.7768L133.69 56.4011C133.188 56.4772 132.705 56.4985 132.242 56.4651ZM135.625 41.8867L135.782 39.7084L138.176 39.8811L138.019 42.0594L135.625 41.8867ZM134.816 56.4342L135.656 44.8005L137.595 44.9403L136.755 56.5741L134.816 56.4342ZM143.07 57.2461C142.272 57.1886 141.564 56.9852 140.948 56.6359C140.349 56.2718 139.885 55.8053 139.557 55.2362C139.229 54.6671 139.089 54.0475 139.138 53.3772C139.199 52.5314 139.462 51.8767 139.929 51.4131C140.412 50.9506 141.163 50.6519 142.183 50.5169C143.221 50.3672 144.617 50.3556 146.373 50.4822L147.139 50.5375L147.192 49.7954C147.264 48.806 147.107 48.0809 146.724 47.6201C146.357 47.1444 145.727 46.8744 144.833 46.8099C144.131 46.7593 143.445 46.8141 142.776 46.9744C142.108 47.1187 141.414 47.3895 140.696 47.7868L140.128 46.3262C140.765 45.939 141.524 45.6489 142.404 45.4557C143.3 45.2637 144.147 45.1964 144.945 45.254C146.445 45.3622 147.528 45.8092 148.193 46.5951C148.874 47.3822 149.159 48.5497 149.047 50.0977L148.519 57.4226L146.7 57.2914L146.845 55.2806C146.492 55.945 145.982 56.4536 145.315 56.8065C144.664 57.1606 143.915 57.3071 143.07 57.2461ZM143.486 55.8084C144.444 55.8774 145.249 55.6067 145.903 54.9961C146.558 54.3696 146.922 53.5457 146.995 52.5243L147.047 51.8062L146.305 51.7527C145.013 51.6594 143.987 51.6496 143.227 51.7232C142.485 51.7819 141.952 51.952 141.626 52.2333C141.318 52.4998 141.146 52.8884 141.109 53.3991C141.062 54.0534 141.247 54.6041 141.664 55.0513C142.097 55.4996 142.704 55.752 143.486 55.8084ZM155.811 58.1652C154.439 58.0662 153.435 57.6329 152.801 56.8652C152.167 56.0816 151.9 55.0036 151.999 53.6312L152.44 47.5271L150.166 47.363L150.274 45.8549L152.548 46.019L152.806 42.4522L154.745 42.5921L154.487 46.1588L158.174 46.4247L158.065 47.9328L154.379 47.6669L153.952 53.5796C153.886 54.4892 154.028 55.1972 154.376 55.7036C154.726 56.194 155.332 56.4703 156.193 56.5325C156.449 56.5509 156.706 56.5374 156.966 56.492C157.226 56.4465 157.462 56.3994 157.674 56.3505L157.902 57.8589C157.687 57.9556 157.376 58.0375 156.97 58.1044C156.565 58.1714 156.178 58.1917 155.811 58.1652ZM163.68 58.7328C161.845 58.6004 160.431 57.961 159.439 56.8147C158.448 55.6524 158.019 54.1456 158.153 52.2944C158.239 51.0976 158.555 50.0616 159.099 49.1865C159.644 48.2954 160.35 47.6324 161.215 47.1976C162.098 46.7479 163.09 46.5628 164.191 46.6422C165.771 46.7562 166.971 47.3561 167.791 48.4419C168.612 49.5117 168.959 50.9324 168.831 52.7037L168.778 53.4458L160.016 52.8139C159.985 54.143 160.295 55.184 160.946 55.9368C161.599 56.6737 162.547 57.087 163.792 57.1768C164.494 57.2275 165.172 57.1721 165.825 57.0107C166.48 56.8333 167.112 56.518 167.722 56.0647L168.294 57.4775C167.732 57.9342 167.033 58.2769 166.199 58.5054C165.365 58.718 164.526 58.7938 163.68 58.7328ZM164.135 48.0819C163.034 48.0025 162.14 48.2829 161.452 48.9231C160.764 49.5632 160.324 50.4378 160.132 51.5469L167.193 52.0562C167.231 50.8719 166.986 49.9318 166.458 49.2361C165.947 48.5415 165.173 48.1568 164.135 48.0819ZM175.474 59.367L176.314 47.7332L178.205 47.8696L178.063 49.8325C178.465 49.1556 178.99 48.6561 179.639 48.334C180.289 47.9959 181.029 47.8568 181.859 47.9166C183.678 48.0478 184.786 48.9218 185.183 50.5385C185.587 49.8298 186.147 49.2927 186.863 48.9273C187.58 48.5459 188.386 48.3874 189.279 48.4519C191.865 48.6384 193.047 50.2636 192.826 53.3277L192.303 60.5808L190.364 60.441L190.88 53.2836C190.957 52.2143 190.822 51.4185 190.475 50.8962C190.145 50.3591 189.549 50.0594 188.687 49.9972C187.745 49.9293 186.971 50.2104 186.364 50.8403C185.757 51.4703 185.413 52.3438 185.333 53.4609L184.858 60.0438L182.919 59.904L183.435 52.7466C183.512 51.6773 183.377 50.8816 183.03 50.3592C182.7 49.8221 182.104 49.5224 181.242 49.4602C180.285 49.3912 179.502 49.6716 178.895 50.3016C178.305 50.9327 177.969 51.8068 177.888 52.9239L177.413 59.5068L175.474 59.367ZM198.617 61.2529C197.819 61.1953 197.112 60.9919 196.496 60.6426C195.896 60.2786 195.433 59.812 195.105 59.243C194.777 58.6739 194.637 58.0542 194.686 57.384C194.747 56.5382 195.01 55.8834 195.477 55.4198C195.959 54.9573 196.711 54.6586 197.731 54.5237C198.769 54.3739 200.165 54.3624 201.921 54.489L202.687 54.5442L202.74 53.8022C202.811 52.8127 202.655 52.0876 202.271 51.6268C201.905 51.1512 201.274 50.8812 200.381 50.8167C199.679 50.766 198.993 50.8208 198.324 50.9811C197.656 51.1254 196.962 51.3962 196.244 51.7936L195.675 50.3329C196.313 49.9458 197.072 49.6556 197.952 49.4624C198.848 49.2704 199.695 49.2032 200.493 49.2607C201.993 49.3689 203.076 49.816 203.741 50.6019C204.422 51.3889 204.707 52.5564 204.595 54.1044L204.067 61.4294L202.248 61.2982L202.393 59.2874C202.04 59.9517 201.53 60.4604 200.863 60.8133C200.212 61.1673 199.463 61.3139 198.617 61.2529ZM199.034 59.8151C199.991 59.8842 200.797 59.6134 201.451 59.0029C202.105 58.3764 202.47 57.5524 202.543 56.5311L202.595 55.8129L201.853 55.7594C200.56 55.6662 199.534 55.6563 198.775 55.7299C198.033 55.7887 197.499 55.9587 197.174 56.2401C196.866 56.5066 196.694 56.8952 196.657 57.4059C196.61 58.0602 196.795 58.6109 197.212 59.058C197.645 59.5063 198.252 59.7587 199.034 59.8151ZM206.707 61.6198L207.546 49.986L209.437 50.1224L209.287 52.205C210.01 50.8455 211.343 50.1636 213.284 50.1593L213.983 50.1376L214.006 51.8236L212.775 51.8791C211.667 51.8955 210.804 52.1861 210.186 52.7511C209.569 53.3001 209.223 54.0933 209.148 55.1306L208.669 61.7614L206.707 61.6198ZM214.328 62.1696L215.546 45.2934L217.485 45.4333L216.733 55.8462L216.781 55.8497L222.54 51.0676L225.006 51.2454L218.761 56.4256L224.669 62.9155L222.204 62.7376L216.709 56.855L216.661 56.8516L216.267 62.3094L214.328 62.1696ZM230.263 63.5355C228.427 63.4031 227.014 62.7637 226.022 61.6174C225.031 60.4551 224.602 58.9483 224.736 57.0972C224.822 55.9003 225.137 54.8643 225.682 53.9892C226.227 53.0981 226.933 52.4351 227.798 52.0003C228.681 51.5506 229.673 51.3655 230.774 51.4449C232.354 51.5589 233.554 52.1588 234.374 53.2446C235.195 54.3144 235.542 55.7351 235.414 57.5065L235.36 58.2485L226.599 57.6166C226.567 58.9457 226.877 59.9867 227.529 60.7395C228.181 61.4764 229.13 61.8897 230.375 61.9795C231.077 62.0302 231.755 61.9748 232.408 61.8134C233.063 61.636 233.695 61.3207 234.305 60.8674L234.877 62.2802C234.315 62.7369 233.616 63.0796 232.782 63.3081C231.948 63.5207 231.108 63.5965 230.263 63.5355ZM230.718 52.8846C229.617 52.8052 228.722 53.0856 228.035 53.7258C227.347 54.3659 226.907 55.2405 226.714 56.3496L233.776 56.859C233.813 55.6746 233.568 54.7345 233.041 54.0388C232.53 53.3442 231.755 52.9595 230.718 52.8846ZM241.471 64.344C240.099 64.245 239.095 63.8116 238.461 63.044C237.827 62.2604 237.56 61.1824 237.659 59.81L238.1 53.7058L235.825 53.5418L235.934 52.0337L238.208 52.1978L238.466 48.631L240.405 48.7709L240.147 52.3376L243.834 52.6035L243.725 54.1116L240.039 53.8457L239.612 59.7583C239.546 60.668 239.688 61.376 240.036 61.8824C240.386 62.3728 240.992 62.6491 241.853 62.7112C242.109 62.7297 242.366 62.7162 242.626 62.6707C242.886 62.6253 243.122 62.5782 243.334 62.5293L243.562 64.0376C243.347 64.1344 243.036 64.2162 242.63 64.2832C242.224 64.3502 241.838 64.3704 241.471 64.344ZM245.039 49.7789L245.196 47.6006L247.59 47.7732L247.432 49.9516L245.039 49.7789ZM244.23 64.3264L245.069 52.6926L247.008 52.8325L246.169 64.4663L244.23 64.3264ZM248.836 64.6587L249.675 53.0249L251.566 53.1613L251.423 55.1481C251.859 54.4417 252.441 53.9302 253.17 53.6138C253.899 53.2974 254.702 53.1709 255.58 53.2342C258.34 53.4333 259.61 55.0649 259.389 58.129L258.866 65.3821L256.927 65.2423L257.442 58.1088C257.52 57.0236 257.361 56.2181 256.966 55.6923C256.588 55.1517 255.936 54.8481 255.011 54.7813C253.942 54.7042 253.064 54.9777 252.377 55.6019C251.707 56.2113 251.333 57.0666 251.253 58.1677L250.775 64.7985L248.836 64.6587ZM266.304 70.4664C265.299 70.3939 264.359 70.1898 263.485 69.854C262.626 69.5354 261.872 69.088 261.224 68.5119L261.972 67.1461C262.653 67.7086 263.337 68.1269 264.023 68.401C264.725 68.6762 265.491 68.8437 266.321 68.9036C268.619 69.0693 269.853 67.9713 270.023 65.6094L270.172 63.5508C269.784 64.2607 269.215 64.8052 268.466 65.1843C267.734 65.5485 266.913 65.6979 266.003 65.6323C264.934 65.5551 264.026 65.241 263.28 64.6899C262.534 64.1388 261.976 63.4168 261.607 62.524C261.256 61.6163 261.121 60.588 261.204 59.439C261.287 58.2899 261.567 57.2995 262.044 56.4677C262.538 55.621 263.194 54.9865 264.01 54.5642C264.827 54.1418 265.77 53.9692 266.839 54.0464C267.749 54.112 268.539 54.3776 269.212 54.8431C269.9 55.3099 270.386 55.9144 270.669 56.6567L270.821 54.5502L272.712 54.6866L271.933 65.4825C271.804 67.2699 271.261 68.5782 270.303 69.4074C269.361 70.2377 268.028 70.5908 266.304 70.4664ZM266.476 64.0783C267.593 64.1588 268.507 63.8397 269.216 63.1209C269.926 62.4021 270.327 61.3964 270.42 60.1037C270.514 58.8111 270.26 57.7661 269.66 56.9689C269.061 56.1557 268.203 55.7088 267.086 55.6282C265.985 55.5488 265.079 55.8685 264.37 56.5873C263.661 57.2902 263.26 58.2879 263.167 59.5805C263.074 60.8732 263.327 61.9261 263.926 62.7393C264.525 63.5525 265.375 63.9988 266.476 64.0783Z" fill="#1A1A1A"/>
<defs>
<filter id="filter0_d_2151_5323" x="-1.4377" y="-1.87921" width="94.034" height="94.034" filterUnits="userSpaceOnUse" color-interpolation-filters="sRGB">
<feFlood flood-opacity="0" result="BackgroundImageFix"/>
<feColorMatrix in="SourceAlpha" type="matrix" values="0 0 0 0 0 0 0 0 0 0 0 0 0 0 0 0 0 0 127 0" result="hardAlpha"/>
<feOffset dy="3.16097"/>
<feGaussianBlur stdDeviation="8.29756"/>
<feComposite in2="hardAlpha" operator="out"/>
<feColorMatrix type="matrix" values="0 0 0 0 0 0 0 0 0 0 0 0 0 0 0 0 0 0 0.06 0"/>
<feBlend mode="normal" in2="BackgroundImageFix" result="effect1_dropShadow_2151_5323"/>
<feBlend mode="normal" in="SourceGraphic" in2="effect1_dropShadow_2151_5323" result="shape"/>
</filter>
</defs>
</svg>
