<svg width="61" height="61" viewBox="0 0 61 61" fill="none" xmlns="http://www.w3.org/2000/svg">
<rect x="0.986232" y="1.7913" width="58" height="58" rx="29" transform="rotate(-0.794401 0.986232 1.7913)" fill="#EEF2FF"/>
<path d="M25.4841 23.12L35.0832 22.9869C39.6161 22.924 40.0987 25.0376 40.4412 27.6197L41.7798 37.6021C42.2119 40.8764 41.2358 43.5702 36.5696 43.6349L24.5841 43.8011C19.9045 43.866 18.8541 41.2003 19.2086 37.9151L20.2698 27.8994C20.5273 25.3089 20.9512 23.1828 25.4841 23.12Z" stroke="#6366F1" stroke-width="1.5" stroke-linecap="round" stroke-linejoin="round"/>
<path d="M24.9791 25.1262L24.9144 20.46C24.8867 18.4602 26.2014 17.1085 28.2012 17.0807L32.2008 17.0253C34.2006 16.9976 35.5523 18.3123 35.58 20.3121L35.6447 24.9783" stroke="#6366F1" stroke-width="1.5" stroke-linecap="round" stroke-linejoin="round"/>
<path d="M41.6906 36.9347L25.1455 37.1641" stroke="#6366F1" stroke-width="1.5" stroke-linecap="round" stroke-linejoin="round"/>
<rect x="0.986232" y="1.7913" width="58" height="58" rx="29" transform="rotate(-0.794401 0.986232 1.7913)" stroke="#6366F1" stroke-width="2"/>
</svg>
