<svg width="90" height="92" viewBox="0 0 90 92" fill="none" xmlns="http://www.w3.org/2000/svg">
<path d="M1.83783 90.8498C3.56693 92.7236 10.689 89.4559 16.3104 86.8356C20.5227 84.878 37.3795 77.9616 45.7584 74.3739C48.0207 73.4065 51.3113 72.1421 53.6802 69.0267C55.7826 66.254 61.3583 54.4779 50.1306 42.5494C38.7354 30.4381 26.9973 33.782 22.6098 36.8898C20.0276 38.718 17.9253 42.8389 16.9808 44.9336C12.9894 53.7847 7.29934 70.0017 4.98372 76.3772C3.28509 81.077 0.12397 88.9912 1.83783 90.8498Z" fill="#FFC107"/>
<path d="M15.8525 47.5986C15.9592 48.924 16.2258 51.0797 17.1398 55.231C17.7644 58.0799 18.7851 61.0658 19.6154 63.0386C22.1062 68.9724 25.6025 71.3642 29.1445 73.2837C35.162 76.5439 39.2525 77.1532 39.2525 77.1532L34.347 79.1565C34.347 79.1565 31.3763 78.5395 27.324 76.5438C23.4621 74.6396 19.4402 71.4175 16.5 65.1105C15.2279 62.3759 14.4891 59.7252 14.0625 57.6228C13.5369 55.0178 13.4531 53.54 13.4531 53.54L15.8525 47.5986Z" fill="#FF8F00"/>
<path d="M9.82695 63.0459C9.82695 63.0459 10.4363 67.9894 14.5191 74.2279C19.3027 81.5251 25.983 82.721 25.983 82.721L21.5421 84.5492C21.5421 84.5492 16.5834 83.0333 11.8683 76.5968C8.92812 72.5826 8.10547 67.7838 8.10547 67.7838L9.82695 63.0459Z" fill="#FF8F00"/>
<path d="M5.60019 74.7617C5.60019 74.7617 6.7123 79.0273 9.14979 82.2113C12.0519 86.0123 15.7462 87.1168 15.7462 87.1168L12.3414 88.625C12.3414 88.625 9.75916 88.0841 6.93319 84.5041C4.78515 81.7847 4.17578 78.6617 4.17578 78.6617L5.60019 74.7617Z" fill="#FF8F00"/>
<path opacity="0.44" d="M3.74614 85.5942C3.59379 85.2514 3.59379 84.863 3.75375 84.5278L23.1547 44.2939L26.3463 56.291L5.93226 85.777C5.38383 86.5997 4.14984 86.493 3.74614 85.5942Z" fill="#FFFDE7"/>
<path d="M27.886 60.3198C36.9505 70.9229 47.2717 69.5975 50.7071 66.9162C54.15 64.2274 56.8694 54.9878 47.843 44.5599C38.3825 33.6369 27.6728 36.7523 25.1972 39.1136C22.7216 41.4749 19.5681 50.5927 27.886 60.3198Z" fill="url(#paint0_linear_617_39246)"/>
<path d="M59.0159 64.6853C55.7101 61.9126 53.9505 62.4077 51.5892 63.3904C48.5423 64.6548 43.7512 65.5917 37.2461 63.3904L39.2037 58.6753C43.0656 59.9779 45.8611 59.3456 48.2757 57.9212C51.3835 56.0931 55.6339 53.5871 62.2456 59.14C65.003 61.4556 67.829 62.9943 69.9009 62.2935C71.4091 61.7908 72.2089 59.5437 72.6126 57.7537C72.6507 57.5937 72.7116 57.1367 72.7573 56.733C73.1229 53.9375 73.7323 47.9047 78.2264 44.8197C83.0329 41.5215 88.083 41.5215 88.083 41.5215L88.9971 50.6011C86.6739 50.2584 85.059 50.7306 83.6955 51.4847C78.5616 54.3412 83.0329 65.3099 75.0425 68.9966C67.3567 72.569 61.0726 66.4068 59.0159 64.6853Z" fill="#03A9F4"/>
<path d="M30.7421 53.1069L27.4363 50.1438C33.5071 43.3645 31.9075 38.3829 30.7421 34.7571C30.506 34.0259 30.2851 33.3327 30.1404 32.67C29.6224 30.3239 29.5158 28.2825 29.6757 26.5001C27.3449 23.598 26.3165 20.5587 26.248 20.3531C24.8312 16.0646 25.8976 11.8828 28.3427 7.95993C33.2863 0 42.2364 0 42.2364 0L45.2223 7.9904C42.9524 7.899 35.5105 8.01326 33.2253 11.6162C30.3384 16.156 32.2351 18.9591 32.3722 19.279C32.9282 18.5554 33.4919 17.9765 33.9946 17.5271C37.6433 14.2898 40.812 13.8251 42.8306 14.008C45.1005 14.2136 47.1571 15.3562 48.6272 17.23C50.2344 19.2867 50.8971 21.9603 50.3868 24.3902C49.8917 26.7591 48.3149 28.7624 45.946 30.0345C41.8099 32.2587 38.3669 31.954 36.0589 31.1847C36.0741 31.238 36.0817 31.2989 36.097 31.3522C36.1808 31.7331 36.3484 32.2663 36.5464 32.8833C37.8946 37.0575 40.4007 43.6844 30.7421 53.1069ZM36.3407 24.5196C36.7825 24.8396 37.2472 25.1062 37.7271 25.2966C39.3267 25.9364 41.071 25.7232 43.0515 24.6568C44.2169 24.0321 44.354 23.3618 44.3997 23.1409C44.5368 22.4782 44.3083 21.6327 43.8132 21.0005C43.379 20.4445 42.8763 20.155 42.2745 20.0941C41.1319 19.9951 39.5856 20.7187 38.0394 22.0974C37.3005 22.7601 36.7368 23.5751 36.3407 24.5196Z" fill="#F44336"/>
<path d="M43.9724 54.3496L39.2422 54.2201C39.2422 54.2201 41.4892 41.53 48.7636 39.3971C50.1271 39.0011 51.6201 38.5973 53.1207 38.3764C54.0119 38.2393 55.421 38.0337 56.1142 37.7747C56.2742 36.5788 55.7714 35.0554 55.2078 33.3263C54.766 31.9856 54.3089 30.6069 54.0652 29.0987C53.5929 26.1585 54.3775 23.5611 56.2742 21.771C58.5898 19.6001 62.3298 18.907 66.5497 19.8667C68.9567 20.4152 70.7315 21.5958 72.293 22.6318C74.5249 24.1171 75.8274 24.8712 78.5544 23.0355C81.8526 20.8113 77.5413 12.1049 75.2485 7.07753L83.8026 3.5127C84.9528 6.02636 90.5057 18.9603 86.8418 26.3413C85.6079 28.8245 83.4827 30.4698 80.6948 31.0868C74.6315 32.4427 71.0819 30.0814 68.4921 28.3599C67.2657 27.5448 66.1917 26.905 65.0263 26.5698C56.9292 24.2618 68.2331 36.1751 62.9392 41.53C59.7628 44.7368 52.0009 45.5823 51.4982 45.7042C46.5013 46.9077 43.9724 54.3496 43.9724 54.3496Z" fill="#F48FB1"/>
<path d="M29.6691 26.5C29.5244 28.1758 29.4558 29.1736 29.89 31.3521C31.9847 32.8908 36.5474 32.8908 36.5474 32.8908C36.3494 32.2738 36.1742 31.7406 36.098 31.3597C36.0828 31.3064 36.0752 31.2455 36.0599 31.1922C31.4211 28.8766 29.6691 26.5 29.6691 26.5Z" fill="#C92B27"/>
<path d="M20.1769 34.0037L12.3008 30.1418L16.2236 24.4746L22.4011 28.565L20.1769 34.0037Z" fill="#FFC107"/>
<path d="M8.56931 23.3078C4.54745 22.767 0.449413 19.3545 0 18.966L3.95331 14.3271C5.1492 15.3402 7.68572 17.0389 9.38435 17.2674L8.56931 23.3078Z" fill="#FB8C00"/>
<path d="M15.668 13.156L9.87891 11.2594C10.5416 9.23319 10.7168 7.04706 10.374 4.93711L16.3916 3.96973C16.8867 7.03183 16.6353 10.2082 15.668 13.156Z" fill="#03A9F4"/>
<path d="M51.8203 8.62598L57.7733 7.32375L59.4922 15.1817L53.5393 16.4839L51.8203 8.62598Z" fill="#FB8C00"/>
<path d="M66.5879 10.4892L62.3984 6.06366C64.5922 3.98417 65.0949 1.26484 65.0949 1.23438L71.1125 2.21699C71.0363 2.69687 70.267 7.00818 66.5879 10.4892Z" fill="#FFC107"/>
<path d="M68.918 33.958L74.24 32.2948L76.0578 38.1112L70.7357 39.7745L68.918 33.958Z" fill="#FB8C00"/>
<path d="M70.4668 83.0496L64.4111 82.3336C64.6701 80.1779 63.0629 77.5347 62.6211 76.9482L67.4961 73.292C67.8617 73.7719 71.0381 78.167 70.4668 83.0496Z" fill="#F44336"/>
<path d="M87.8488 75.326C85.5713 74.9833 83.2404 74.8461 80.94 74.9299L80.7344 68.8362C83.408 68.7448 86.1121 68.8971 88.7552 69.3009L87.8488 75.326Z" fill="#FB8C00"/>
<path d="M79.6562 83.7148L83.9377 79.3785L89.8297 85.196L85.5482 89.5323L79.6562 83.7148Z" fill="#F48FB1"/>
<path d="M67.0742 45.1934L71.4768 50.2273L66.4429 54.6299L62.0403 49.596L67.0742 45.1934Z" fill="#F44336"/>
<defs>
<linearGradient id="paint0_linear_617_39246" x1="52.8203" y1="44.056" x2="30.1461" y2="57.6606" gradientUnits="userSpaceOnUse">
<stop offset="0.0235" stop-color="#8F4700"/>
<stop offset="1" stop-color="#703E2D"/>
</linearGradient>
</defs>
</svg>
