<svg width="291" height="99" viewBox="0 0 291 99" fill="none" xmlns="http://www.w3.org/2000/svg">
<rect x="12.7539" y="2.8606" width="278.9" height="72.8997" rx="36.4498" transform="rotate(4.80342 12.7539 2.8606)" fill="#F2EDD9"/>
<g filter="url(#filter0_d_2151_5327)">
<rect x="20.0559" y="11.5024" width="56.8997" height="56.8997" rx="28.4498" transform="rotate(4.80342 20.0559 11.5024)" fill="#7A9659" shape-rendering="crispEdges"/>
<path d="M46.2019 53.9601L38.2353 53.2911C33.576 52.8999 32.1967 49.493 32.4524 46.4481L33.3451 35.8171C33.7265 31.276 35.6471 29.6529 40.1882 30.0343L48.1549 30.7032C52.696 31.0846 54.319 33.0052 53.9377 37.5463L53.045 48.1773C52.6637 52.7184 50.743 54.3414 46.2019 53.9601ZM40.0207 32.0292C36.5951 31.7416 35.6277 32.5591 35.3401 35.9846L34.4474 46.6156C34.3118 48.2299 34.6491 50.981 38.4028 51.2962L46.3694 51.9652C49.795 52.2528 50.7624 51.4353 51.05 48.0097L51.9427 37.3788C52.2304 33.9533 51.4129 32.9858 47.9873 32.6982L40.0207 32.0292Z" fill="#FAFAFA"/>
<path d="M56.8735 51.2215C56.3091 51.1741 55.6027 50.9297 54.8243 50.2828L51.5261 47.5342C51.2791 47.3285 51.1469 47.0134 51.1745 46.6853L51.8446 38.7055C51.8721 38.3774 52.055 38.0887 52.3329 37.927L56.0433 35.767C57.6966 34.8088 58.812 35.2196 59.3269 35.5404C59.8408 35.8744 60.6967 36.6996 60.5369 38.6027L59.729 48.2231C59.5692 50.1261 58.5866 50.8102 58.0253 51.0407C57.7638 51.1641 57.3591 51.2623 56.8735 51.2215ZM53.2004 46.3267L56.1039 48.7381C56.6604 49.1946 57.0771 49.2692 57.2554 49.1917C57.4468 49.1152 57.6746 48.7643 57.7341 48.0555L58.5408 38.4483C58.6014 37.7265 58.4212 37.3545 58.2583 37.2483C58.0954 37.1421 57.6721 37.1462 57.0473 37.5034L53.7823 39.3969L53.2004 46.3267Z" fill="#FAFAFA"/>
<path d="M45.3948 41.8516C43.7674 41.7149 42.5531 40.278 42.6898 38.6506C42.8264 37.0231 44.2633 35.8088 45.8908 35.9455C47.5182 36.0821 48.7325 37.519 48.5959 39.1465C48.4592 40.774 47.0223 41.9882 45.3948 41.8516ZM45.7255 37.9142C45.1874 37.869 44.7037 38.2778 44.6585 38.8159C44.6133 39.354 45.022 39.8377 45.5602 39.8829C46.0983 39.9281 46.582 39.5193 46.6272 38.9812C46.6723 38.4431 46.2636 37.9594 45.7255 37.9142Z" fill="#FAFAFA"/>
</g>
<path d="M101.426 55.1352C99.768 54.9959 98.3785 54.5259 97.2576 53.7252C96.1367 52.9245 95.3116 51.8517 94.7824 50.5066C94.2691 49.1629 94.0875 47.5982 94.2376 45.8125C94.3863 44.0428 94.8258 42.5383 95.5561 41.2991C96.3024 40.0612 97.2949 39.1411 98.5337 38.5387C99.7725 37.9363 101.221 37.7048 102.879 37.8442C104.043 37.942 105.096 38.2151 106.038 38.6635C106.995 39.1133 107.788 39.7178 108.414 40.4769L107.514 42.0149C106.838 41.2677 106.115 40.7092 105.343 40.3392C104.588 39.9547 103.733 39.7222 102.776 39.6419C100.879 39.4824 99.3778 39.9584 98.2729 41.0698C97.1679 42.1811 96.5244 43.821 96.3421 45.9894C96.1586 48.1737 96.5188 49.9059 97.4228 51.1861C98.3268 52.4663 99.7274 53.1861 101.625 53.3456C102.581 53.4259 103.463 53.3475 104.27 53.1102C105.094 52.8583 105.901 52.4204 106.692 51.7965L107.323 53.4631C106.58 54.0911 105.698 54.5549 104.677 54.8545C103.674 55.1394 102.59 55.233 101.426 55.1352ZM112.994 56.1073C111.862 56.0122 110.902 55.6826 110.115 55.1187C109.327 54.5548 108.74 53.807 108.352 52.8753C107.982 51.929 107.849 50.842 107.952 49.6143C108.055 48.3866 108.368 47.3451 108.889 46.4898C109.428 45.6198 110.132 44.9726 111.003 44.548C111.874 44.1234 112.875 43.9587 114.007 44.0538C115.123 44.1476 116.075 44.4764 116.862 45.0404C117.666 45.6056 118.253 46.3614 118.623 47.3077C119.01 48.2394 119.152 49.3191 119.049 50.5468C118.946 51.7745 118.625 52.8233 118.086 53.6932C117.565 54.5486 116.861 55.1878 115.974 55.6111C115.103 56.0357 114.11 56.2011 112.994 56.1073ZM113.125 54.5528C114.209 54.6439 115.11 54.3343 115.828 53.6239C116.547 52.8976 116.967 51.8169 117.088 50.382C117.21 48.9311 116.976 47.7955 116.387 46.9753C115.797 46.1551 114.961 45.6994 113.876 45.6083C112.776 45.5159 111.867 45.8248 111.149 46.5352C110.447 47.2469 110.035 48.3282 109.913 49.7791C109.793 51.214 110.018 52.3489 110.59 53.1838C111.18 54.004 112.025 54.4603 113.125 54.5528ZM120.514 56.5224L121.49 44.8994L123.38 45.0582L123.213 47.0432C123.657 46.3419 124.245 45.8374 124.978 45.5296C125.71 45.2219 126.515 45.1048 127.392 45.1785C130.15 45.4103 131.401 47.0568 131.143 50.118L130.534 57.3645L128.597 57.2017L129.196 50.0748C129.287 48.9906 129.138 48.1833 128.749 47.6529C128.378 47.1079 127.729 46.7965 126.805 46.7188C125.736 46.629 124.855 46.8922 124.161 47.5082C123.485 48.1097 123.1 48.9604 123.008 50.0606L122.451 56.6852L120.514 56.5224ZM137.795 58.1914C136.424 58.0762 135.426 57.631 134.801 56.8559C134.177 56.0649 133.922 54.9838 134.037 53.6127L134.55 47.5141L132.278 47.3232L132.405 45.8165L134.677 46.0075L134.976 42.444L136.913 42.6068L136.614 46.1702L140.297 46.4797L140.17 47.9864L136.487 47.6769L135.991 53.5841C135.914 54.4929 136.047 55.2025 136.39 55.713C136.734 56.2075 137.336 56.491 138.197 56.5633C138.452 56.5848 138.71 56.5743 138.97 56.532C139.231 56.4896 139.467 56.4453 139.68 56.3989L139.89 57.9098C139.674 58.004 139.362 58.0822 138.955 58.1444C138.549 58.2065 138.162 58.2222 137.795 58.1914ZM145.657 58.852C143.823 58.698 142.417 58.0419 141.439 56.8839C140.462 55.71 140.051 54.1983 140.206 52.3488C140.307 51.153 140.634 50.1208 141.189 49.2522C141.745 48.3677 142.458 47.7131 143.329 47.2885C144.217 46.8493 145.211 46.6759 146.311 46.7684C147.89 46.901 149.082 47.5151 149.889 48.6105C150.698 49.69 151.028 51.1146 150.879 52.8844L150.817 53.6258L142.064 52.8902C142.016 54.2189 142.314 55.2635 142.956 56.024C143.6 56.7685 144.544 57.193 145.788 57.2975C146.489 57.3565 147.167 57.3091 147.823 57.1554C148.479 56.9858 149.115 56.678 149.731 56.232L150.286 57.6514C149.718 58.1015 149.016 58.4358 148.178 58.6545C147.342 58.8572 146.502 58.9231 145.657 58.852ZM146.238 48.2073C145.138 48.1149 144.24 48.3847 143.545 49.0167C142.85 49.6487 142.399 50.518 142.194 51.6247L149.249 52.2175C149.3 51.0337 149.067 50.0908 148.548 49.3889C148.044 48.6883 147.275 48.2944 146.238 48.2073ZM152.209 59.1859L153.186 47.5629L155.075 47.7216L154.909 49.7066C155.353 49.0054 155.941 48.5009 156.674 48.1931C157.406 47.8854 158.211 47.7683 159.088 47.842C161.846 48.0738 163.096 49.7203 162.839 52.7815L162.23 60.028L160.293 59.8652L160.892 52.7383C160.983 51.6541 160.834 50.8468 160.445 50.3164C160.073 49.7713 159.425 49.46 158.5 49.3823C157.432 49.2925 156.551 49.5556 155.857 50.1717C155.18 50.7731 154.796 51.6239 154.703 52.724L154.147 59.3487L152.209 59.1859ZM169.491 60.8549C168.12 60.7397 167.122 60.2945 166.496 59.5194C165.872 58.7284 165.618 57.6473 165.733 56.2761L166.246 50.1776L163.974 49.9867L164.1 48.48L166.372 48.6709L166.672 45.1075L168.609 45.2703L168.309 48.8337L171.992 49.1432L171.866 50.6499L168.183 50.3404L167.686 56.2476C167.61 57.1564 167.743 57.866 168.086 58.3765C168.429 58.871 169.032 59.1545 169.893 59.2268C170.148 59.2482 170.406 59.2378 170.666 59.1954C170.927 59.1531 171.163 59.1088 171.376 59.0624L171.586 60.5733C171.369 60.6675 171.058 60.7457 170.651 60.8079C170.244 60.87 169.858 60.8857 169.491 60.8549ZM182.344 61.935C181.18 61.8372 180.197 61.5056 179.393 60.9404C178.591 60.3592 177.997 59.5947 177.611 58.6471C177.242 57.6848 177.11 56.5899 177.213 55.3622C177.368 53.5127 177.992 52.104 179.085 51.1361C180.179 50.1523 181.603 49.7341 183.357 49.8815C184.075 49.9418 184.774 50.1289 185.454 50.443C186.134 50.757 186.686 51.1647 187.109 51.6659L186.321 53.0206C185.896 52.5354 185.413 52.1656 184.873 51.9115C184.348 51.6587 183.838 51.5115 183.344 51.47C182.132 51.3681 181.168 51.6724 180.45 52.3828C179.733 53.0772 179.315 54.1339 179.196 55.5529C179.079 56.94 179.314 58.0676 179.899 58.9357C180.486 59.7878 181.385 60.2648 182.597 60.3666C183.091 60.4081 183.618 60.348 184.177 60.1863C184.753 60.0259 185.291 59.734 185.792 59.3105L186.343 60.7778C185.842 61.2013 185.221 61.5184 184.481 61.7292C183.758 61.9253 183.046 61.9939 182.344 61.935ZM187.55 62.1556L188.526 50.5326L190.416 50.6914L190.241 52.772C190.98 51.4212 192.321 50.7551 194.262 50.7738L194.962 50.7603L194.965 52.4464L193.733 52.4874C192.625 52.4907 191.758 52.7711 191.133 53.3287C190.51 53.8704 190.154 54.6594 190.067 55.6958L189.511 62.3204L187.55 62.1556ZM200.244 63.4391C198.41 63.285 197.004 62.629 196.026 61.471C195.048 60.297 194.638 58.7853 194.793 56.9358C194.894 55.7401 195.221 54.7079 195.776 53.8393C196.332 52.9547 197.045 52.3001 197.916 51.8756C198.804 51.4364 199.798 51.263 200.898 51.3554C202.476 51.4881 203.669 52.1021 204.476 53.1975C205.285 54.277 205.614 55.7017 205.466 57.4714L205.403 58.2128L196.65 57.4773C196.603 58.806 196.9 59.8505 197.543 60.611C198.187 61.3556 199.131 61.7801 200.374 61.8846C201.076 61.9435 201.754 61.8962 202.409 61.7425C203.066 61.5729 203.702 61.265 204.317 60.819L204.872 62.2385C204.305 62.6885 203.602 63.0229 202.765 63.2415C201.929 63.4443 201.089 63.5101 200.244 63.4391ZM200.825 52.7944C199.725 52.702 198.827 52.9717 198.132 53.6037C197.436 54.2357 196.986 55.105 196.781 56.2117L203.836 56.8046C203.887 55.6207 203.653 54.6778 203.134 53.9759C202.631 53.2753 201.861 52.8815 200.825 52.7944ZM210.437 64.2957C209.64 64.2287 208.935 64.0169 208.323 63.6604C207.728 63.2893 207.27 62.8173 206.949 62.2444C206.627 61.6715 206.495 61.0502 206.551 60.3805C206.622 59.5355 206.894 58.884 207.366 58.4259C207.854 57.9691 208.609 57.6793 209.631 57.5565C210.67 57.419 212.066 57.424 213.82 57.5713L214.585 57.6357L214.648 56.8943C214.731 55.9058 214.583 55.1788 214.205 54.7135C213.844 54.2336 213.217 53.9561 212.324 53.8811C211.622 53.8221 210.936 53.8688 210.265 54.0212C209.595 54.1576 208.899 54.4202 208.176 54.809L207.625 53.3417C208.267 52.9621 209.029 52.681 209.911 52.4982C210.81 52.3168 211.657 52.2596 212.454 52.3266C213.953 52.4525 215.03 52.9123 215.686 53.706C216.358 54.5011 216.629 55.6719 216.499 57.2184L215.884 64.5366L214.066 64.3839L214.235 62.375C213.875 63.0351 213.359 63.5377 212.688 63.8827C212.032 64.229 211.282 64.3667 210.437 64.2957ZM210.871 62.863C211.827 62.9433 212.636 62.6821 213.297 62.0794C213.959 61.4606 214.333 60.6411 214.419 59.6207L214.479 58.9032L213.737 58.8409C212.446 58.7324 211.42 58.7104 210.66 58.775C209.917 58.825 209.382 58.9887 209.053 59.2662C208.742 59.529 208.565 59.9156 208.522 60.4258C208.468 61.0795 208.646 61.6323 209.057 62.0844C209.485 62.5378 210.089 62.7973 210.871 62.863ZM223.167 65.3654C221.796 65.2502 220.797 64.805 220.172 64.0299C219.548 63.2389 219.294 62.1578 219.409 60.7866L219.922 54.6881L217.65 54.4972L217.776 52.9905L220.048 53.1815L220.348 49.618L222.285 49.7808L221.985 53.3442L225.668 53.6537L225.542 55.1604L221.859 54.8509L221.362 60.7581C221.286 61.6669 221.419 62.3765 221.761 62.887C222.105 63.3815 222.708 63.665 223.569 63.7373C223.824 63.7588 224.081 63.7483 224.342 63.706C224.602 63.6636 224.839 63.6193 225.052 63.5729L225.262 65.0838C225.045 65.178 224.733 65.2562 224.327 65.3184C223.92 65.3805 223.534 65.3962 223.167 65.3654ZM226.907 50.8436L227.089 48.6672L229.481 48.8682L229.298 51.0445L226.907 50.8436ZM225.926 65.3805L226.903 53.7574L228.84 53.9202L227.863 65.5433L225.926 65.3805ZM235.341 66.3884C234.209 66.2933 233.249 65.9637 232.461 65.3998C231.674 64.8359 231.086 64.0881 230.699 63.1564C230.329 62.2101 230.195 61.1231 230.299 59.8954C230.402 58.6677 230.714 57.6262 231.236 56.7709C231.774 55.9009 232.479 55.2537 233.35 54.8291C234.22 54.4045 235.222 54.2398 236.354 54.3349C237.47 54.4287 238.421 54.7575 239.209 55.3214C240.012 55.8867 240.599 56.6425 240.969 57.5888C241.357 58.5205 241.499 59.6002 241.396 60.8279C241.292 62.0556 240.971 63.1044 240.433 63.9743C239.911 64.8296 239.207 65.4689 238.321 65.8922C237.45 66.3168 236.457 66.4822 235.341 66.3884ZM235.471 64.8339C236.555 64.925 237.457 64.6153 238.175 63.905C238.894 63.1787 239.314 62.098 239.434 60.6631C239.556 59.2122 239.323 58.0766 238.733 57.2564C238.144 56.4362 237.307 55.9805 236.223 55.8894C235.123 55.797 234.214 56.1059 233.496 56.8163C232.794 57.528 232.382 58.6093 232.26 60.0602C232.139 61.4951 232.365 62.63 232.937 63.4649C233.526 64.2851 234.371 64.7414 235.471 64.8339ZM242.86 66.8035L243.837 55.1805L245.726 55.3393L245.56 57.3243C246.004 56.623 246.592 56.1185 247.324 55.8107C248.057 55.503 248.861 55.3859 249.738 55.4596C252.497 55.6914 253.747 57.3379 253.49 60.3991L252.881 67.6456L250.944 67.4828L251.543 60.3559C251.634 59.2717 251.485 58.4644 251.096 57.934C250.724 57.389 250.076 57.0776 249.151 56.9999C248.083 56.9101 247.202 57.1733 246.508 57.7893C245.831 58.3908 245.447 59.2415 245.354 60.3417L244.797 66.9663L242.86 66.8035Z" fill="#1A1A1A"/>
<defs>
<filter id="filter0_d_2151_5327" x="-1.30385" y="-1.9317" width="94.6547" height="94.6546" filterUnits="userSpaceOnUse" color-interpolation-filters="sRGB">
<feFlood flood-opacity="0" result="BackgroundImageFix"/>
<feColorMatrix in="SourceAlpha" type="matrix" values="0 0 0 0 0 0 0 0 0 0 0 0 0 0 0 0 0 0 127 0" result="hardAlpha"/>
<feOffset dy="3.16097"/>
<feGaussianBlur stdDeviation="8.29756"/>
<feComposite in2="hardAlpha" operator="out"/>
<feColorMatrix type="matrix" values="0 0 0 0 0 0 0 0 0 0 0 0 0 0 0 0 0 0 0.06 0"/>
<feBlend mode="normal" in2="BackgroundImageFix" result="effect1_dropShadow_2151_5327"/>
<feBlend mode="normal" in="SourceGraphic" in2="effect1_dropShadow_2151_5327" result="shape"/>
</filter>
</defs>
</svg>
