<svg width="18" height="20" viewBox="0 0 18 20" fill="none" xmlns="http://www.w3.org/2000/svg">
<path d="M1.5 5.00127H3.1667M3.1667 5.00127H16.5M3.1667 5.00127V16.668C3.1667 17.11 3.3423 17.5339 3.6548 17.8465C3.9674 18.159 4.3913 18.3346 4.8333 18.3346H13.1667C13.6087 18.3346 14.0326 18.159 14.3452 17.8465C14.6577 17.5339 14.8333 17.11 14.8333 16.668V5.00127H3.1667ZM5.6667 5.00127V3.33457C5.6667 2.89257 5.8423 2.46867 6.1548 2.15607C6.4674 1.84357 6.8913 1.66797 7.3333 1.66797H10.6667C11.1087 1.66797 11.5326 1.84357 11.8452 2.15607C12.1577 2.46867 12.3333 2.89257 12.3333 3.33457V5.00127M7.3333 9.16797V14.168M10.6667 9.16797V14.168" stroke="#737373" stroke-width="1.66667" stroke-linecap="round" stroke-linejoin="round"/>
</svg>

