<svg width="24" height="24" viewBox="0 0 24 24" fill="none" xmlns="http://www.w3.org/2000/svg">
<path d="M20.5343 9.19796L19.2968 7.25171C19.6937 6.65668 19.9123 5.96059 19.9268 5.24546C19.9331 5.21084 19.9357 5.17563 19.9343 5.14046C19.9351 4.13941 19.5438 3.17786 18.8443 2.4618C18.1447 1.74574 17.1926 1.33212 16.1918 1.30957C15.191 1.28701 14.2212 1.65731 13.4901 2.34113C12.759 3.02494 12.3248 3.96789 12.2805 4.96796L9.65928 6.12671C9.40169 6.23837 9.18076 6.42031 9.02178 6.65171L3.26928 14.928C3.22916 14.9842 3.20576 15.0507 3.20178 15.1197C3.1978 15.1887 3.2134 15.2574 3.24678 15.318C3.89757 16.5578 4.80984 17.6415 5.92053 18.4942C7.0163 19.3303 8.28449 19.9118 9.63303 20.1967C9.65907 20.2011 9.68538 20.2036 9.71178 20.2042C9.77632 20.2041 9.83971 20.187 9.89563 20.1548C9.95155 20.1226 9.99806 20.0762 10.0305 20.0205L11.4068 17.7255V21.3555C11.4066 21.4272 11.427 21.4975 11.4655 21.5579C11.5041 21.6184 11.5592 21.6666 11.6243 21.6967C13.0269 22.3488 14.555 22.6867 16.1018 22.6867C17.6486 22.6867 19.1767 22.3488 20.5793 21.6967C20.6447 21.667 20.7001 21.6189 20.7387 21.5584C20.7773 21.4978 20.7975 21.4273 20.7968 21.3555V10.098C20.7971 9.77903 20.706 9.46669 20.5343 9.19796ZM16.1018 2.06171C16.9201 2.0634 17.7043 2.38973 18.2822 2.96907C18.8602 3.5484 19.1846 4.3334 19.1843 5.15171C19.1812 5.17029 19.1799 5.18913 19.1805 5.20796C19.1695 5.67144 19.0542 6.12647 18.843 6.53921L18.198 5.52296C18.008 5.22486 17.7458 4.97955 17.4358 4.80976C17.1257 4.63998 16.7778 4.55122 16.4243 4.55171H15.7455C15.4928 4.55205 15.2424 4.59909 15.0068 4.69046C14.7511 4.522 14.4575 4.41975 14.1524 4.39291C13.8474 4.36607 13.5405 4.41549 13.2593 4.53671L13.068 4.62296C13.192 3.90754 13.564 3.25865 14.1188 2.79026C14.6736 2.32187 15.3757 2.06392 16.1018 2.06171ZM11.4068 10.2367V16.2705L9.52803 19.4017C8.38408 19.124 7.31019 18.612 6.37428 17.898C5.40926 17.1577 4.60644 16.2273 4.01553 15.1642L9.64053 7.07921C9.71975 6.96236 9.83019 6.87011 9.95928 6.81296L13.563 5.22296C13.7825 5.13052 14.0265 5.11338 14.2568 5.17421C14.1358 5.29089 14.0311 5.42333 13.9455 5.56796L11.6468 9.37421C11.4911 9.63506 11.4082 9.93291 11.4068 10.2367ZM20.0468 21.1155C18.7997 21.6481 17.4578 21.9226 16.1018 21.9226C14.7458 21.9226 13.4038 21.6481 12.1568 21.1155V10.2367C12.1581 10.0687 12.2047 9.90416 12.2918 9.76046L14.5868 5.95421C14.7081 5.75553 14.8783 5.59124 15.0812 5.47702C15.284 5.3628 15.5127 5.30244 15.7455 5.30171H16.4243C16.6518 5.30098 16.8758 5.35806 17.0752 5.4676C17.2746 5.57714 17.4429 5.73555 17.5643 5.92796L18.3818 7.21046C18.0948 7.53068 17.7432 7.78647 17.3503 7.96098C16.9573 8.1355 16.5318 8.22479 16.1018 8.22296C15.904 8.22029 15.7068 8.19894 15.513 8.15921C15.5918 8.01377 15.7082 7.89216 15.85 7.80706C15.9918 7.72197 16.1539 7.67652 16.3193 7.67546C16.4187 7.67546 16.5141 7.63595 16.5844 7.56562C16.6548 7.4953 16.6943 7.39991 16.6943 7.30046C16.6943 7.201 16.6548 7.10562 16.5844 7.03529C16.5141 6.96497 16.4187 6.92546 16.3193 6.92546C15.8762 6.92546 15.4513 7.10147 15.138 7.41477C14.8247 7.72808 14.6487 8.15301 14.6487 8.59608C14.6487 9.03916 14.8247 9.46409 15.138 9.77739C15.4513 10.0907 15.8762 10.2667 16.3193 10.2667C16.4187 10.2667 16.5141 10.2272 16.5844 10.1569C16.6548 10.0865 16.6943 9.99116 16.6943 9.89171C16.6943 9.79225 16.6548 9.69687 16.5844 9.62654C16.5141 9.55622 16.4187 9.51671 16.3193 9.51671C16.1315 9.5165 15.9483 9.45893 15.7941 9.3517C15.64 9.24446 15.5223 9.09269 15.4568 8.91671C16.0568 9.02107 16.6731 8.97983 17.2539 8.79646C17.8347 8.61309 18.363 8.29295 18.7943 7.86296L19.9043 9.60296C19.9981 9.75096 20.0475 9.92273 20.0468 10.098V21.1155Z" fill="black"/>
<path d="M14.3724 12.1113C14.1278 12.1121 13.8889 12.1853 13.6859 12.3217C13.4829 12.4581 13.3249 12.6517 13.2318 12.8779C13.1387 13.104 13.1147 13.3527 13.1629 13.5925C13.2111 13.8324 13.3292 14.0525 13.5025 14.2252C13.6757 14.3979 13.8962 14.5154 14.1361 14.5628C14.3761 14.6103 14.6247 14.5855 14.8506 14.4918C15.0765 14.398 15.2696 14.2394 15.4054 14.036C15.5412 13.8325 15.6137 13.5934 15.6137 13.3488C15.6137 13.186 15.5815 13.0248 15.5191 12.8744C15.4567 12.724 15.3652 12.5874 15.2499 12.4725C15.1346 12.3575 14.9977 12.2664 14.8471 12.2045C14.6966 12.1425 14.5352 12.1108 14.3724 12.1113ZM14.3724 13.8363C14.2762 13.8356 14.1823 13.8064 14.1026 13.7524C14.0229 13.6983 13.961 13.622 13.9247 13.5328C13.8884 13.4437 13.8793 13.3458 13.8985 13.2515C13.9177 13.1571 13.9645 13.0706 14.0328 13.0028C14.1011 12.935 14.188 12.889 14.2824 12.8704C14.3769 12.8519 14.4747 12.8618 14.5636 12.8988C14.6524 12.9358 14.7284 12.9983 14.7818 13.0784C14.8352 13.1585 14.8637 13.2526 14.8637 13.3488C14.8637 13.4132 14.8509 13.4769 14.8262 13.5363C14.8015 13.5957 14.7652 13.6496 14.7196 13.6949C14.6739 13.7402 14.6197 13.776 14.5601 13.8003C14.5006 13.8246 14.4368 13.8368 14.3724 13.8363Z" fill="black"/>
<path d="M17.8311 16.4277C17.586 16.4274 17.3462 16.4997 17.1422 16.6356C16.9382 16.7714 16.7791 16.9648 16.6849 17.1911C16.5908 17.4174 16.5658 17.6666 16.6133 17.9071C16.6608 18.1475 16.7785 18.3686 16.9515 18.5422C17.1246 18.7157 17.3452 18.8341 17.5856 18.8823C17.8259 18.9305 18.0752 18.9063 18.3018 18.8129C18.5284 18.7194 18.7222 18.5608 18.8587 18.3572C18.9952 18.1536 19.0682 17.9141 19.0686 17.669C19.0684 17.3405 18.9381 17.0255 18.7061 16.7928C18.4742 16.5602 18.1596 16.4289 17.8311 16.4277ZM17.8311 18.1565C17.7341 18.1569 17.6393 18.1284 17.5585 18.0748C17.4777 18.0212 17.4147 17.9448 17.3775 17.8553C17.3402 17.7658 17.3303 17.6672 17.3492 17.5721C17.368 17.477 17.4146 17.3896 17.4832 17.3211C17.5517 17.2525 17.6391 17.2059 17.7342 17.1871C17.8293 17.1682 17.9279 17.1781 18.0174 17.2153C18.1069 17.2526 18.1833 17.3156 18.2369 17.3964C18.2905 17.4772 18.319 17.572 18.3186 17.669C18.3186 17.7983 18.2672 17.9223 18.1758 18.0137C18.0844 18.1051 17.9604 18.1565 17.8311 18.1565Z" fill="black"/>
<path d="M18.2588 12.6263C18.1814 12.5638 18.0825 12.5346 17.9836 12.5451C17.8847 12.5555 17.794 12.6048 17.7315 12.6822L13.89 17.4334C13.859 17.4717 13.8359 17.5158 13.822 17.5631C13.808 17.6104 13.8035 17.6599 13.8087 17.7089C13.8139 17.7579 13.8288 17.8054 13.8523 17.8487C13.8759 17.892 13.9077 17.9302 13.9461 17.9612C13.9844 17.9922 14.0285 18.0153 14.0758 18.0293C14.123 18.0432 14.1726 18.0477 14.2216 18.0425C14.2706 18.0373 14.3181 18.0225 14.3614 17.9989C14.4047 17.9754 14.4429 17.9435 14.4739 17.9052L18.3154 13.1539C18.3464 13.1156 18.3694 13.0715 18.3834 13.0242C18.3973 12.9769 18.4017 12.9274 18.3965 12.8784C18.3912 12.8294 18.3763 12.7819 18.3527 12.7386C18.3291 12.6954 18.2972 12.6572 18.2588 12.6263Z" fill="black"/>
<path d="M8.80488 15.4577C8.76698 15.4252 8.72295 15.4005 8.67539 15.3852C8.62783 15.3699 8.57769 15.3643 8.52792 15.3686C8.47814 15.373 8.42974 15.3872 8.38555 15.4105C8.34137 15.4338 8.30228 15.4657 8.2706 15.5044C8.23891 15.543 8.21527 15.5876 8.20105 15.6355C8.18683 15.6834 8.18233 15.7336 8.18781 15.7833C8.19328 15.8329 8.20863 15.881 8.23294 15.9247C8.25725 15.9683 8.29004 16.0067 8.32938 16.0375L9.42963 16.9401C9.4963 16.9952 9.58012 17.0253 9.66663 17.0252C9.74395 17.0253 9.8194 17.0014 9.88264 16.9569C9.94588 16.9124 9.99382 16.8494 10.0199 16.7767C10.046 16.7039 10.0489 16.6248 10.0283 16.5503C10.0077 16.4757 9.96452 16.4094 9.90475 16.3603L8.80488 15.4577Z" fill="black"/>
<path d="M6.59343 13.6552C6.5181 13.5924 6.42121 13.5617 6.32351 13.5696C6.22581 13.5774 6.13506 13.6232 6.0707 13.6971C6.00633 13.771 5.97347 13.8672 5.97915 13.9651C5.98482 14.0629 6.02858 14.1547 6.10106 14.2206L7.12893 15.1154C7.16591 15.1489 7.20919 15.1746 7.25625 15.1911C7.3033 15.2077 7.35318 15.2147 7.40296 15.2117C7.45274 15.2087 7.50143 15.1958 7.54617 15.1738C7.59092 15.1518 7.63082 15.121 7.66354 15.0834C7.69626 15.0458 7.72115 15.002 7.73674 14.9546C7.75234 14.9072 7.75833 14.8572 7.75436 14.8075C7.75039 14.7578 7.73655 14.7094 7.71364 14.6651C7.69073 14.6208 7.65921 14.5815 7.62093 14.5495L6.59343 13.6552Z" fill="black"/>
</svg>
