<svg width="40" height="40" viewBox="0 0 40 40" fill="none" xmlns="http://www.w3.org/2000/svg">
<g clip-path="url(#clip0_1534_44500)">
<path d="M24.1667 12.4989C24.3856 12.2801 24.6455 12.1065 24.9314 11.988C25.2174 11.8696 25.5239 11.8086 25.8334 11.8086C26.1429 11.8086 26.4494 11.8696 26.7354 11.988C27.0214 12.1065 27.2812 12.2801 27.5001 12.4989C27.719 12.7178 27.8926 12.9777 28.011 13.2636C28.1295 13.5496 28.1904 13.8561 28.1904 14.1656C28.1904 14.4751 28.1295 14.7816 28.011 15.0676C27.8926 15.3536 27.719 15.6134 27.5001 15.8323L16.2501 27.0823L11.6667 28.3323L12.9167 23.7489L24.1667 12.4989Z" stroke="#737373" stroke-width="1.66667" stroke-linecap="round" stroke-linejoin="round"/>
</g>
<defs>
<clipPath id="clip0_1534_44500">
<rect width="20" height="20" fill="white" transform="translate(10 10)"/>
</clipPath>
</defs>
</svg>
