<svg width="52" height="52" viewBox="0 0 52 52" fill="none" xmlns="http://www.w3.org/2000/svg">
<circle cx="26" cy="26" r="25" fill="#EEF2FF" stroke="#6366F1" stroke-width="2"/>
<path d="M27.9023 16.082H19.9023C19.3719 16.082 18.8632 16.2927 18.4881 16.6678C18.1131 17.0429 17.9023 17.5516 17.9023 18.082V34.082C17.9023 34.6125 18.1131 35.1212 18.4881 35.4962C18.8632 35.8713 19.3719 36.082 19.9023 36.082H31.9023C32.4328 36.082 32.9415 35.8713 33.3166 35.4962C33.6916 35.1212 33.9023 34.6125 33.9023 34.082V22.082L27.9023 16.082Z" stroke="#6366F1" stroke-width="2" stroke-linecap="round" stroke-linejoin="round"/>
<path d="M27.9023 16.082V22.082H33.9023" stroke="#6366F1" stroke-width="2" stroke-linecap="round" stroke-linejoin="round"/>
<path d="M29.9023 27.082H21.9023" stroke="#6366F1" stroke-width="2" stroke-linecap="round" stroke-linejoin="round"/>
<path d="M29.9023 31.082H21.9023" stroke="#6366F1" stroke-width="2" stroke-linecap="round" stroke-linejoin="round"/>
<path d="M23.9023 23.082H22.9023H21.9023" stroke="#6366F1" stroke-width="2" stroke-linecap="round" stroke-linejoin="round"/>
</svg>
