<svg width="20" height="20" viewBox="0 0 20 20" fill="none" xmlns="http://www.w3.org/2000/svg">
<g clipPath="url(#clip0_2827_152)">
<path d="M10 1.80078C12.6719 1.80078 12.9883 1.8125 14.0391 1.85937C15.0156 1.90234 15.543 2.06641 15.8945 2.20313C16.3594 2.38281 16.6953 2.60156 17.043 2.94922C17.3945 3.30078 17.6094 3.63281 17.7891 4.09766C17.9258 4.44922 18.0898 4.98047 18.1328 5.95312C18.1797 7.00781 18.1914 7.32422 18.1914 9.99219C18.1914 12.6641 18.1797 12.9805 18.1328 14.0313C18.0898 15.0078 17.9258 15.5352 17.7891 15.8867C17.6094 16.3516 17.3906 16.6875 17.043 17.0352C16.6914 17.3867 16.3594 17.6016 15.8945 17.7813C15.543 17.918 15.0117 18.082 14.0391 18.125C12.9844 18.1719 12.668 18.1836 10 18.1836C7.3281 18.1836 7.0117 18.1719 5.9609 18.125C4.9844 18.082 4.457 17.918 4.1055 17.7813C3.6406 17.6016 3.3047 17.3828 2.957 17.0352C2.6055 16.6836 2.3906 16.3516 2.2109 15.8867C2.0742 15.5352 1.9102 15.0039 1.8672 14.0313C1.8203 12.9766 1.8086 12.6602 1.8086 9.99219C1.8086 7.32031 1.8203 7.00391 1.8672 5.95312C1.9102 4.97656 2.0742 4.44922 2.2109 4.09766C2.3906 3.63281 2.6094 3.29688 2.957 2.94922C3.3086 2.59766 3.6406 2.38281 4.1055 2.20313C4.457 2.06641 4.9883 1.90234 5.9609 1.85937C7.0117 1.8125 7.3281 1.80078 10 1.80078ZM10 0C7.2852 0 6.9453 0.0117187 5.8789 0.0585938C4.8164 0.105469 4.0859 0.277344 3.4531 0.523438C2.793 0.78125 2.2344 1.12109 1.6797 1.67969C1.1211 2.23438 0.781299 2.79297 0.523399 3.44922C0.277299 4.08594 0.105501 4.8125 0.0586014 5.875C0.0117014 6.94531 0 7.28516 0 10C0 12.7148 0.0117014 13.0547 0.0586014 14.1211C0.105501 15.1836 0.277299 15.9141 0.523399 16.5469C0.781299 17.207 1.1211 17.7656 1.6797 18.3203C2.2344 18.875 2.793 19.2188 3.4492 19.4727C4.0859 19.7188 4.8125 19.8906 5.875 19.9375C6.9414 19.9844 7.2813 19.9961 9.9961 19.9961C12.7109 19.9961 13.0508 19.9844 14.1172 19.9375C15.1797 19.8906 15.9102 19.7188 16.543 19.4727C17.1992 19.2188 17.7578 18.875 18.3125 18.3203C18.8672 17.7656 19.2109 17.207 19.4648 16.5508C19.7109 15.9141 19.8828 15.1875 19.9297 14.125C19.9766 13.0586 19.9883 12.7188 19.9883 10.0039C19.9883 7.28906 19.9766 6.94922 19.9297 5.88281C19.8828 4.82031 19.7109 4.08984 19.4648 3.45703C19.2188 2.79297 18.8789 2.23438 18.3203 1.67969C17.7656 1.125 17.207 0.78125 16.5508 0.527344C15.9141 0.28125 15.1875 0.109375 14.125 0.0625C13.0547 0.0117188 12.7148 0 10 0Z" fill="#A3A3A3"/>
<path d="M9.99998 4.86328C7.16408 4.86328 4.86328 7.16406 4.86328 10C4.86328 12.8359 7.16408 15.1367 9.99998 15.1367C12.8359 15.1367 15.1367 12.8359 15.1367 10C15.1367 7.16406 12.8359 4.86328 9.99998 4.86328ZM9.99998 13.332C8.16018 13.332 6.66798 11.8398 6.66798 10C6.66798 8.16016 8.16018 6.66797 9.99998 6.66797C11.8398 6.66797 13.332 8.16016 13.332 10C13.332 11.8398 11.8398 13.332 9.99998 13.332Z" fill="#A3A3A3"/>
<path d="M16.5391 4.66016C16.5391 5.32422 16 5.85938 15.3398 5.85938C14.6758 5.85938 14.1406 5.32031 14.1406 4.66016C14.1406 3.99609 14.6797 3.46094 15.3398 3.46094C16 3.46094 16.5391 4 16.5391 4.66016Z" fill="#A3A3A3"/>
</g>
<defs>
<clipPath id="clip0_2827_152">
<rect width="20" height="20" fill="white"/>
</clipPath>
</defs>
</svg>
