<svg width="61" height="61" viewBox="0 0 61 61" fill="none" xmlns="http://www.w3.org/2000/svg">
<rect x="0.986232" y="1.79716" width="58.4406" height="58.4406" rx="29.2203" transform="rotate(-0.794401 0.986232 1.79716)" fill="#EEF2FF"/>
<path d="M31.4354 42.3555C30.9821 42.5155 30.2354 42.5155 29.7821 42.3555C25.9154 41.0355 17.2754 35.5289 17.2754 26.1955C17.2754 22.0755 20.5954 18.7422 24.6887 18.7422C27.1154 18.7422 29.2621 19.9155 30.6087 21.7289C31.9554 19.9155 34.1154 18.7422 36.5287 18.7422C40.6221 18.7422 43.9421 22.0755 43.9421 26.1955C43.9421 35.5289 35.3021 41.0355 31.4354 42.3555Z" stroke="#6366F1" stroke-width="1.5" stroke-linecap="round" stroke-linejoin="round"/>
<rect x="0.986232" y="1.79716" width="58.4406" height="58.4406" rx="29.2203" transform="rotate(-0.794401 0.986232 1.79716)" stroke="#6366F1" stroke-width="2"/>
</svg>
