<svg width="20" height="20" viewBox="0 0 20 20" fill="none" xmlns="http://www.w3.org/2000/svg">
<g clipPath="url(#clip0_2827_150)">
<path d="M18.52 0H1.477C0.659997 0 0 0.644531 0 1.44141V18.5547C0 19.3516 0.659997 20 1.477 20H18.52C19.336 20 20 19.3516 20 18.5586V1.44141C20 0.644531 19.336 0 18.52 0ZM5.934 17.043H2.965V7.49609H5.934V17.043ZM4.449 6.19531C3.496 6.19531 2.727 5.42578 2.727 4.47656C2.727 3.52734 3.496 2.75781 4.449 2.75781C5.398 2.75781 6.168 3.52734 6.168 4.47656C6.168 5.42188 5.398 6.19531 4.449 6.19531ZM17.043 17.043H14.078V12.4023C14.078 11.2969 14.059 9.87109 12.535 9.87109C10.992 9.87109 10.758 11.0781 10.758 12.3242V17.043H7.797V7.49609H10.641V8.80078H10.68C11.074 8.05078 12.043 7.25781 13.484 7.25781C16.488 7.25781 17.043 9.23438 17.043 11.8047V17.043Z" fill="#A3A3A3"/>
</g>
<defs>
<clipPath id="clip0_2827_150">
<rect width="20" height="20" fill="white"/>
</clipPath>
</defs>
</svg>
