<svg width="16" height="16" viewBox="0 0 16 16" fill="none" xmlns="http://www.w3.org/2000/svg">
<rect width="16" height="16" rx="6" fill="#FAFAFA"/>
<g clip-path="url(#clip0_3210_1661)">
<path d="M10.1873 12.4798H5.8206C4.65394 12.4798 3.91227 11.784 3.8456 10.6215L3.62894 7.18398C3.5956 6.66315 3.77477 6.16315 4.1331 5.78398C4.48727 5.40482 4.98727 5.18815 5.50394 5.18815C5.63727 5.18815 5.76644 5.10898 5.82894 4.98398L6.12894 4.38815C6.37477 3.90065 6.99144 3.52148 7.52892 3.52148H8.48309C9.02059 3.52148 9.63309 3.90065 9.87892 4.38398L10.1789 4.99232C10.2414 5.10898 10.3664 5.18815 10.5039 5.18815C11.0206 5.18815 11.5206 5.40482 11.8748 5.78398C12.2331 6.16732 12.4123 6.66315 12.3789 7.18398L12.1623 10.6256C12.0873 11.8048 11.3664 12.4798 10.1873 12.4798ZM7.52892 4.14648C7.22059 4.14648 6.82894 4.38815 6.68727 4.66732L6.38727 5.26732C6.21227 5.60482 5.87477 5.81315 5.50394 5.81315C5.15394 5.81315 4.82894 5.95482 4.58727 6.20898C4.34977 6.46315 4.22894 6.79648 4.25394 7.14232L4.4706 10.584C4.5206 11.4257 4.97477 11.8548 5.8206 11.8548H10.1873C11.0289 11.8548 11.4831 11.4257 11.5373 10.584L11.7539 7.14232C11.7748 6.79648 11.6581 6.46315 11.4206 6.20898C11.1789 5.95482 10.8539 5.81315 10.5039 5.81315C10.1331 5.81315 9.79559 5.60482 9.62059 5.27565L9.31642 4.66732C9.17892 4.39232 8.78725 4.15065 8.47892 4.15065H7.52892V4.14648Z" fill="#6366F1"/>
<path d="M8.625 6.64648H7.375C7.20417 6.64648 7.0625 6.50482 7.0625 6.33398C7.0625 6.16315 7.20417 6.02148 7.375 6.02148H8.625C8.79583 6.02148 8.9375 6.16315 8.9375 6.33398C8.9375 6.50482 8.79583 6.64648 8.625 6.64648Z" fill="#6366F1"/>
<path d="M8.0026 10.8118C7.08177 10.8118 6.33594 10.066 6.33594 9.14518C6.33594 8.22435 7.08177 7.47852 8.0026 7.47852C8.92344 7.47852 9.66927 8.22435 9.66927 9.14518C9.66927 10.066 8.92344 10.8118 8.0026 10.8118ZM8.0026 8.10352C7.4276 8.10352 6.96094 8.57018 6.96094 9.14518C6.96094 9.72018 7.4276 10.1868 8.0026 10.1868C8.5776 10.1868 9.04427 9.72018 9.04427 9.14518C9.04427 8.57018 8.5776 8.10352 8.0026 8.10352Z" fill="#6366F1"/>
</g>
<defs>
<clipPath id="clip0_3210_1661">
<rect width="10" height="10" fill="white" transform="translate(3 3)"/>
</clipPath>
</defs>
</svg>
