<svg width="20" height="20" viewBox="0 0 30 30" fill="none" xmlns="http://www.w3.org/2000/svg">
<g clip-path="url(#clip0_3217_1666)">
<path d="M26.0996 3.9C23.5996 1.4 20.7996 0 18.4996 0C18.3996 0 18.1996 0.1 18.0996 0.1C15.3996 2.8 14.7996 7.5 18.5996 11.3C20.3996 13.1 22.3996 14 24.5996 14C26.4996 14 28.4996 13.2 29.7996 11.8C29.8996 11.7 29.8996 11.6 29.8996 11.4C29.9996 9.2 28.5996 6.4 26.0996 3.9ZM27.9996 10.5C26.6996 10.5 24.1996 9.1 22.5996 7.4C20.8996 5.7 19.4996 3.3 19.4996 2C19.4996 1.7 19.6996 1.5 19.9996 1.5C20.2996 1.5 20.4996 1.7 20.4996 2C20.4996 2.9 21.5996 5.1 23.2996 6.7C24.8996 8.3 27.0996 9.5 27.9996 9.5C28.2996 9.5 28.4996 9.7 28.4996 10C28.4996 10.3 28.2996 10.5 27.9996 10.5ZM21.5996 14.5C20.2996 14 18.9996 13.2 17.8996 12.1C16.7996 11 16.0996 9.9 15.5996 8.6C15.4996 8.4 15.3996 8.3 15.1996 8.3C14.9996 8.3 14.8996 8.3 14.7996 8.4C12.8996 10.2 11.7996 11.2 11.4996 11.5C10.6996 12.3 10.7996 14 13.3996 16.6C14.8996 18.1 16.2996 18.9 17.3996 18.9C17.8996 18.9 18.1996 18.8 18.4996 18.5C18.8996 18.1 20.4996 16.5 21.7996 15.3C21.8996 15.2 21.9996 15 21.8996 14.8C21.7996 14.6 21.7996 14.6 21.5996 14.5Z" fill="#FAFAFA"/>
<path d="M19.3 19.4996C19.2 19.3996 19 19.4996 18.9 19.4996C18.5 19.7996 18 19.8996 17.5 19.8996C16.5 19.8996 14.9 19.3996 12.8 17.2996C10.5 14.9996 9.6 12.6996 10.6 11.1996C10.7 11.0996 10.7 10.8996 10.6 10.7996C10.5 10.6996 10.4 10.4996 10.3 10.4996C9.5 10.2996 8.7 10.0996 7.9 10.0996C6.7 10.0996 5 10.3996 3.8 11.6996C2.8 12.6996 3 14.2996 4.3 16.4996C5.6 18.5996 7.5 20.6996 8.5 21.6996C9.7 22.8996 14 26.9996 16.9 26.9996C17.6 26.9996 18.1 26.7996 18.5 26.3996C20.3 24.5996 20.3 21.7996 19.7 19.8996C19.5 19.6996 19.4 19.4996 19.3 19.4996ZM7.6 22.3996C7.3 22.0996 6.9 21.6996 6.6 21.2996C6.5 21.1996 6.4 21.0996 6.2 21.0996C6.1 21.0996 5.9 21.1996 5.8 21.2996L0 29.0996C0 29.3996 0 29.6996 0.1 29.8996C0.2 29.8996 0.4 29.9996 0.5 29.9996C0.6 29.9996 0.7 29.9996 0.8 29.8996L8.6 24.0996C8.7 23.9996 8.8 23.8996 8.8 23.6996C8.8 23.5996 8.7 23.3996 8.6 23.2996C8.3 22.9996 8 22.6996 7.6 22.3996Z" fill="#FAFAFA"/>
</g>
<defs>
<clipPath id="clip0_3217_1666">
<rect width="30" height="30" fill="white"/>
</clipPath>
</defs>
</svg>
