<svg width="12" height="12" viewBox="0 0 12 12" fill="none" xmlns="http://www.w3.org/2000/svg">
<path d="M5.59933 1.17773H6.4029C6.47433 1.17773 6.51004 1.21345 6.51004 1.28488V10.7134C6.51004 10.7849 6.47433 10.8206 6.4029 10.8206H5.59933C5.5279 10.8206 5.49219 10.7849 5.49219 10.7134V1.28488C5.49219 1.21345 5.5279 1.17773 5.59933 1.17773Z" fill="black"/>
<path d="M1.49777 5.49023H10.4978C10.5692 5.49023 10.6049 5.52595 10.6049 5.59738V6.40095C10.6049 6.47238 10.5692 6.50809 10.4978 6.50809H1.49777C1.42634 6.50809 1.39062 6.47238 1.39062 6.40095V5.59738C1.39062 5.52595 1.42634 5.49023 1.49777 5.49023Z" fill="black"/>
</svg>
