<svg width="140" height="140" viewBox="0 0 140 140" fill="none" xmlns="http://www.w3.org/2000/svg">
<rect width="140" height="139.069" rx="69.5346" fill="#EEF2FF"/>
<path d="M21.8635 100.637C12.5035 109.998 12 127.058 12 127.058C12 127.058 29.0495 126.555 38.421 117.195C47.7924 107.835 51.6715 96.541 47.0944 91.9754C42.5174 87.3984 31.2236 91.2774 21.8635 100.637Z" fill="url(#paint0_linear_684_40835)"/>
<path opacity="0.2" d="M41.7507 92.3413C43.387 92.3413 44.6343 92.7646 45.4696 93.5885C48.6163 96.7352 45.8243 106.542 36.7961 115.581C30.2738 122.103 19.4148 124.026 14.4945 124.575C15.0437 119.655 16.9661 108.796 23.4769 102.273C29.5072 96.2317 36.6817 92.3413 41.7507 92.3413ZM41.7507 90.0527C36.2469 90.0527 28.5574 93.9432 21.8635 100.649C12.5035 110.009 12 127.07 12 127.07C12 127.07 29.0495 126.566 38.421 117.206C47.7924 107.846 51.6715 96.5521 47.0944 91.9865C45.79 90.6592 43.9477 90.0527 41.7507 90.0527Z" fill="#424242"/>
<path d="M24.7016 103.932C18.8087 109.825 18.4883 120.558 18.4883 120.558C18.4883 120.558 29.2214 120.238 35.1144 114.345C41.0073 108.452 43.456 101.334 40.5725 98.4623C37.689 95.5902 30.606 98.0275 24.7016 103.932Z" fill="url(#paint1_linear_684_40835)"/>
<path d="M36.7845 104.035C42.3914 110.019 49.7489 109.39 50.3554 108.406L55.4817 100.076C55.7906 99.5721 55.5046 98.7711 55.2872 98.5651L41.4531 84.731C41.2357 84.5136 40.469 84.2619 39.9655 84.5709L31.6353 89.6971C30.6627 90.3036 29.5642 96.311 36.7845 104.035Z" fill="#546E7A"/>
<path d="M74.4545 119.254C73.3103 120.181 71.777 119.975 71.5824 118.602C71.0446 114.803 71.3994 107.171 66.6163 102.388C61.9478 97.719 54.3613 97.0324 54.3613 97.0324L82.922 82.958C82.922 82.958 88.3001 91.2539 85.3364 103.063C82.8648 112.823 78.6425 115.833 74.4545 119.254Z" fill="#0288D1"/>
<path opacity="0.2" d="M81.3084 87.5694C81.5143 88.1301 81.7317 88.7709 81.9263 89.4803C82.7044 92.3181 83.3566 96.8379 81.9949 102.216C80.2671 109.104 77.6811 112.057 74.6488 114.643C74.2597 110.271 73.413 104.321 69.0305 99.9503C67.4285 98.3483 65.5519 97.1354 63.7097 96.2314L81.3084 87.5694ZM82.9103 82.958L54.3496 97.0324C54.3496 97.0324 61.9475 97.7304 66.6046 102.388C71.3876 107.171 71.0329 114.803 71.5707 118.602C71.6851 119.414 72.2802 119.826 72.9781 119.826C73.4587 119.826 73.9851 119.632 74.4428 119.254C78.6308 115.833 82.8531 112.823 85.3133 103.063C88.2998 91.2424 82.9103 82.958 82.9103 82.958Z" fill="#424242"/>
<path d="M20.1464 66.5844C19.0251 67.5456 19.4256 69.2619 20.7987 69.4565C24.5976 69.9943 32.2298 69.6395 37.0128 74.4226C41.6814 79.0911 42.654 85.705 42.654 85.705L56.4538 56.492C56.4538 56.492 49.1534 53.0707 38.5347 55.8283C31.2114 57.7392 23.9454 63.3118 20.1464 66.5844Z" fill="#0288D1"/>
<path opacity="0.2" d="M46.7736 58.1857C48.6845 58.1857 50.3323 58.3917 51.6367 58.6434L43.0548 76.8371C42.1394 75.2008 40.9608 73.5188 39.4389 72.0084C35.3768 67.9462 29.9759 66.9279 25.7193 66.493C29.4152 63.6782 34.4385 60.4513 39.3817 59.1583C41.8533 58.5061 44.3364 58.1857 46.7736 58.1857ZM46.7736 54.7529C44.3592 54.7529 41.5787 55.039 38.535 55.8285C31.2117 57.7394 23.9571 63.312 20.1582 66.5846C19.0368 67.5458 19.4373 69.2621 20.8104 69.4567C24.6093 69.9945 32.2415 69.6397 37.0245 74.4228C41.6931 79.0913 42.6657 85.7052 42.6657 85.7052L56.4541 56.4922C56.4541 56.4922 52.7467 54.7529 46.7736 54.7529Z" fill="#424242"/>
<path opacity="0.2" d="M40.2865 88.4153L51.6375 99.7664L48.056 105.591C47.9416 105.602 47.8157 105.602 47.6784 105.602C46.5685 105.602 42.7009 105.316 39.291 101.677C34.9771 97.0659 34.302 93.4615 34.3592 92.0541L40.2865 88.4153ZM40.5268 84.4219C40.3322 84.4219 40.1377 84.4676 39.9661 84.5592L31.6359 89.6855C30.6518 90.2919 29.5533 96.2993 36.7736 104.023C40.4467 107.948 44.875 109.035 47.667 109.035C49.1316 109.035 50.1386 108.737 50.3445 108.394L55.4708 100.064C55.7798 99.5604 55.4937 98.7594 55.2763 98.5535L41.4536 84.7308C41.3163 84.5935 40.9273 84.4219 40.5268 84.4219Z" fill="#424242"/>
<path d="M92.6925 18.3418C97.3268 20.4701 103.574 24.1318 109.536 30.0933C111.641 32.1988 113.438 34.35 114.994 36.4554C118.004 40.5175 120.063 44.3966 121.413 47.4289C118.404 55.3357 112.729 64.5356 107.179 70.0852C84.5111 92.753 59.4747 105.695 46.5217 96.5291C45.7665 95.9913 45.0227 95.4992 44.3476 94.8928C33.2368 84.9034 45.961 56.3083 69.075 33.1943C74.8764 27.3929 84.5454 21.4656 92.6925 18.3418Z" fill="url(#paint2_radial_684_40835)"/>
<path d="M86.6624 61.3551C92.2868 61.3551 96.8463 56.7956 96.8463 51.1712C96.8463 45.5468 92.2868 40.9873 86.6624 40.9873C81.038 40.9873 76.4785 45.5468 76.4785 51.1712C76.4785 56.7956 81.038 61.3551 86.6624 61.3551Z" fill="#455A64"/>
<path opacity="0.2" d="M86.6622 43.2758C88.7676 43.2758 90.7586 44.0997 92.2461 45.5872C93.7337 47.0748 94.5575 49.0658 94.5575 51.1712C94.5575 53.2767 93.7337 55.2677 92.2461 56.7552C90.7586 58.2427 88.7676 59.0666 86.6622 59.0666C84.5567 59.0666 82.5657 58.2427 81.0782 56.7552C78.0001 53.6771 78.0001 48.6653 81.0782 45.5872C82.5657 44.0997 84.5453 43.2758 86.6622 43.2758ZM86.6622 40.9873C84.0532 40.9873 81.4443 41.9828 79.4533 43.9738C75.4713 47.9558 75.4713 54.398 79.4533 58.3801C81.4443 60.3711 84.0532 61.3666 86.6622 61.3666C89.2711 61.3666 91.88 60.3711 93.871 58.3801C97.853 54.398 97.853 47.9558 93.871 43.9738C91.88 41.9828 89.2711 40.9873 86.6622 40.9873Z" fill="#424242"/>
<path d="M65.6542 80.8416C69.724 80.8416 73.0232 77.5423 73.0232 73.4725C73.0232 69.4027 69.724 66.1035 65.6542 66.1035C61.5844 66.1035 58.2852 69.4027 58.2852 73.4725C58.2852 77.5423 61.5844 80.8416 65.6542 80.8416Z" fill="#455A64"/>
<path d="M92.6927 18.3413C90.5758 28.7884 109.021 49.2478 121.414 47.4284C125.27 37.4619 126.849 30.6993 127.902 19.0622C128.439 13.1693 126.712 11.4872 121.253 12.128C106.779 13.8215 101.057 14.92 92.6927 18.3413Z" fill="#E53935"/>
<path opacity="0.2" d="M123.21 15.4357C123.897 15.4357 124.24 15.5158 124.366 15.5616C124.457 15.7675 124.686 16.5685 124.492 18.7541C123.473 30.025 122.008 36.4329 118.221 46.2049C115.315 53.8142 109.776 62.6364 104.753 67.6597C87.2344 85.1783 68.8347 96.0717 56.7285 96.0717C53.4673 96.0717 50.6982 95.2822 48.5012 93.726L48.1236 93.4628C47.5401 93.0623 47.048 92.7076 46.6361 92.3414C44.7824 90.6708 43.7983 88.1191 43.7068 84.755C43.3864 72.5114 54.8061 52.3038 71.4894 35.6204C76.7187 30.3912 85.9414 24.6012 93.9055 21.5575L93.9741 21.5232C102.064 18.2163 107.694 17.175 121.631 15.5387C122.237 15.47 122.764 15.4357 123.21 15.4357ZM123.21 12.0029C122.615 12.0029 121.974 12.0487 121.253 12.1288C106.778 13.8223 101.057 14.9208 92.6925 18.3421C84.5454 21.4545 74.8764 27.3818 69.075 33.1832C45.961 56.2972 33.2368 84.8923 44.3476 94.8817C45.0113 95.4767 45.755 95.9801 46.5217 96.518C49.3823 98.5433 52.838 99.493 56.7285 99.493C70.4367 99.493 89.5229 87.7415 107.19 70.0855C112.74 64.5359 118.416 55.336 121.425 47.4292C125.281 37.4627 126.86 30.7001 127.913 19.063C128.359 13.9482 127.123 12.0029 123.21 12.0029Z" fill="#424242"/>
<path opacity="0.2" d="M65.6534 68.392C67.0151 68.392 68.2852 68.9184 69.2464 69.8796C70.2076 70.8407 70.7339 72.1109 70.7339 73.4725C70.7339 74.8342 70.2076 76.1043 69.2464 77.0655C68.2852 78.0267 67.0151 78.5531 65.6534 78.5531C64.2917 78.5531 63.0216 78.0267 62.0604 77.0655C61.0993 76.1043 60.5729 74.8342 60.5729 73.4725C60.5729 72.1109 61.0993 70.8407 62.0604 69.8796C63.0331 68.9184 64.3032 68.392 65.6534 68.392ZM65.6534 66.1035C63.7654 66.1035 61.8888 66.8244 60.447 68.2662C57.5749 71.1383 57.5749 75.8068 60.447 78.6789C61.8888 80.1207 63.7654 80.8416 65.6534 80.8416C67.5414 80.8416 69.418 80.1207 70.8598 78.6789C73.7319 75.8068 73.7319 71.1383 70.8598 68.2662C69.4295 66.8244 67.5414 66.1035 65.6534 66.1035Z" fill="#424242"/>
<defs>
<linearGradient id="paint0_linear_684_40835" x1="48.9985" y1="108.553" x2="11.9886" y2="108.553" gradientUnits="userSpaceOnUse">
<stop stop-color="#FF6D00"/>
<stop offset="0.2487" stop-color="#FF9B00"/>
<stop offset="0.5135" stop-color="#FFC600"/>
<stop offset="0.721" stop-color="#FFE000"/>
<stop offset="0.8439" stop-color="#FFEA00"/>
</linearGradient>
<linearGradient id="paint1_linear_684_40835" x1="36.4474" y1="102.405" x2="17.2868" y2="122.149" gradientUnits="userSpaceOnUse">
<stop offset="0.0044475" stop-color="#C62828"/>
<stop offset="0.2711" stop-color="#D75327"/>
<stop offset="0.5983" stop-color="#E98126"/>
<stop offset="0.8504" stop-color="#F59D25"/>
<stop offset="0.9953" stop-color="#F9A825"/>
</linearGradient>
<radialGradient id="paint2_radial_684_40835" cx="0" cy="0" r="1" gradientUnits="userSpaceOnUse" gradientTransform="translate(90.2782 34.3729) rotate(180) scale(41.7346 41.7346)">
<stop offset="0.0112" stop-color="#F5F5F5"/>
<stop offset="0.9995" stop-color="#BDBDBD"/>
</radialGradient>
</defs>
</svg>
