<svg width="95" height="92" viewBox="0 0 95 92" fill="none" xmlns="http://www.w3.org/2000/svg">
<path d="M47.4168 91.4C24.6077 91.4 0 77.0932 0 45.7C0 14.3068 24.6077 0 47.4168 0C60.0885 0 71.7792 4.16941 80.4451 11.7725C89.8467 20.1113 94.8336 31.8837 94.8336 45.7C94.8336 59.5163 89.8467 71.207 80.4451 79.5458C71.7792 87.1488 60.0068 91.4 47.4168 91.4Z" fill="url(#paint0_radial_617_39589)"/>
<path d="M86.5698 18.5342C90.9273 25.5649 93.2 33.9365 93.2 43.2481C93.2 57.0644 88.2131 68.7551 78.8115 77.0939C70.1456 84.697 58.3732 88.9482 45.7832 88.9482C31.0186 88.9482 15.5345 82.9393 6.39453 70.194C15.1912 84.6316 31.738 91.4007 47.4183 91.4007C60.0082 91.4007 71.7807 87.1496 80.4465 79.5465C89.8481 71.2077 94.8351 59.517 94.8351 45.7007C94.8351 35.2854 91.9982 26.0309 86.5698 18.5342Z" fill="#EB8F00"/>
<path d="M31.3957 27.7471C27.9703 27.7471 24.8555 30.6411 24.8555 35.4482C24.8555 40.2553 27.9703 43.1412 31.3957 43.1412C34.8293 43.1412 37.936 40.2471 37.936 35.4482C37.936 30.6493 34.8621 27.7471 31.3957 27.7471Z" fill="#422B0D"/>
<path d="M31.1086 30.9596C29.9477 30.4037 28.5498 30.8942 27.9857 32.0551C27.5524 32.9625 27.7486 34.0498 28.4762 34.7529C29.6371 35.3088 31.0351 34.8183 31.5991 33.6574C32.0324 32.75 31.8362 31.6627 31.1086 30.9596Z" fill="#896024"/>
<path d="M62.7863 27.7471C59.3609 27.7471 56.2461 30.6411 56.2461 35.4482C56.2461 40.2553 59.3609 43.1412 62.7863 43.1412C66.2118 43.1412 69.3266 40.2471 69.3266 35.4482C69.3266 30.6493 66.2118 27.7471 62.7863 27.7471Z" fill="#422B0D"/>
<path d="M62.4602 30.9596C61.2993 30.4037 59.9013 30.8942 59.3372 32.0551C58.9039 32.9625 59.1001 34.0498 59.8277 34.7529C60.9886 35.3088 62.3866 34.8183 62.9507 33.6574C63.384 32.75 63.1878 31.6627 62.4602 30.9596Z" fill="#896024"/>
<path d="M47.8889 58.2002C55.304 58.1348 62.4001 61.2578 67.3625 66.768C67.7386 67.2012 67.8285 67.8144 67.5914 68.3376C67.3544 68.869 66.8311 69.2124 66.2507 69.2205C65.9891 69.2205 65.7275 69.147 65.4986 69.0162C61.5581 66.7516 54.9688 63.9393 47.9053 63.9393H47.7908C40.7355 63.9393 34.1381 66.7516 30.2057 69.0162C29.9768 69.147 29.7152 69.2205 29.4536 69.2205C28.8732 69.2124 28.3581 68.869 28.121 68.3376C27.8758 67.8144 27.9657 67.2012 28.3499 66.768C33.3124 61.2578 40.4004 58.1348 47.8154 58.2002" fill="#422B0D"/>
<defs>
<radialGradient id="paint0_radial_617_39589" cx="0" cy="0" r="1" gradientUnits="userSpaceOnUse" gradientTransform="translate(47.4168 45.7) scale(46.5663 46.5663)">
<stop offset="0.5" stop-color="#FDE030"/>
<stop offset="0.92" stop-color="#F7C02B"/>
<stop offset="1" stop-color="#F4A223"/>
</radialGradient>
</defs>
</svg>
