<svg width="75" height="74" viewBox="0 0 75 74" fill="none" xmlns="http://www.w3.org/2000/svg">
<circle cx="37.5" cy="37" r="36" fill="#EEF2FF" stroke="#6366F1" stroke-width="2"/>
<path d="M25.7207 36.2344L25.8037 42.2205C25.8867 48.2066 28.3198 50.5731 34.3058 50.49L41.4918 50.3904C47.4779 50.3074 49.8444 47.8744 49.7614 41.8883L49.6784 35.9022" stroke="#6366F1" stroke-width="1.5" stroke-linecap="round" stroke-linejoin="round"/>
<path d="M37.7196 37.1083C40.1594 37.0745 41.9317 35.0631 41.6579 32.6266L40.6545 23.733L34.4284 23.8193L33.6586 32.7375C33.4525 35.1806 35.2798 37.1422 37.7196 37.1083Z" stroke="#6366F1" stroke-width="1.5" stroke-linecap="round" stroke-linejoin="round"/>
<path d="M46.1326 36.9923C48.8256 36.955 50.7685 34.7411 50.4647 32.0651L50.0405 28.404C49.5125 24.9443 48.1608 23.6296 44.6678 23.678L40.6016 23.7344L41.6644 33.0672C41.9215 35.2638 43.9328 37.0228 46.1326 36.9923Z" stroke="#6366F1" stroke-width="1.5" stroke-linecap="round" stroke-linejoin="round"/>
<path d="M29.2414 37.2258C31.4412 37.1953 33.4029 35.3812 33.5857 33.1785L33.8381 30.2281L34.3893 23.8198L30.3231 23.8762C26.8301 23.9246 25.5154 25.2763 25.0835 28.7493L24.7743 32.4206C24.5449 35.104 26.5483 37.2631 29.2414 37.2258Z" stroke="#6366F1" stroke-width="1.5" stroke-linecap="round" stroke-linejoin="round"/>
<path d="M37.8115 43.7741C35.5851 43.805 34.4939 44.9269 34.5247 47.1533L34.5709 50.4863L41.237 50.3939L41.1908 47.0609C41.1599 44.8344 40.038 43.7432 37.8115 43.7741Z" stroke="#6366F1" stroke-width="1.5" stroke-linecap="round" stroke-linejoin="round"/>
</svg>
