<svg width="296" height="118" viewBox="0 0 296 118" fill="none" xmlns="http://www.w3.org/2000/svg">
<rect x="5" y="38.2314" width="282.898" height="72.8978" rx="36.4489" transform="rotate(-7.68045 5 38.2314)" fill="#1A1A1A"/>
<g filter="url(#filter0_d_2151_5319)">
<rect x="13.9974" y="45.0906" width="56.8978" height="56.8978" rx="28.4489" transform="rotate(-7.68045 13.9974 45.0906)" fill="#6B6CFE" shape-rendering="crispEdges"/>
<path d="M51.2737 64.2913C50.7386 64.3634 50.2349 63.9795 50.1628 63.4443L49.9198 61.6431C49.735 60.2725 48.9681 59.0204 47.825 58.2309C46.6671 57.4302 45.2777 57.179 43.8856 57.4996C41.566 58.0384 39.8276 60.7182 40.1655 63.2243L40.3363 64.4904C40.4085 65.0256 40.0245 65.5292 39.4894 65.6014C38.9542 65.6735 38.4506 65.2896 38.3784 64.7544L38.2059 63.4753C37.7324 59.9641 40.1283 56.3451 43.4388 55.5664C45.372 55.1196 47.3344 55.4796 48.9479 56.6043C50.545 57.7046 51.6172 59.4472 51.8777 61.379L52.1207 63.1803C52.1928 63.7154 51.8089 64.2191 51.2737 64.2913Z" fill="white"/>
<path d="M51.8013 82.9855L43.9697 84.0417C37.9394 84.8549 36.4384 82.2 35.7833 79.5107L33.75 71.8241C33.4163 70.4338 33.0912 68.4177 34.2576 66.7187C35.2563 65.2551 37.1167 64.3663 39.936 63.986L50.3782 62.5778C53.2106 62.1959 55.2417 62.5732 56.5777 63.7087C58.1393 65.0398 58.373 67.0682 58.416 68.4711L58.495 76.4478C58.5757 79.2146 57.8316 82.1723 51.8013 82.9855ZM40.2001 65.9439C37.9942 66.2414 36.5381 66.8764 35.8842 67.8417C35.3397 68.6328 35.2769 69.7443 35.6649 71.34L37.6982 79.0265C38.2018 81.085 39.0085 82.7305 43.7074 82.0968L51.539 81.0407C56.238 80.407 56.5817 78.6196 56.5237 76.5143L56.4448 68.5376C56.3997 66.9223 56.0448 65.8671 55.3084 65.2355C54.4203 64.4648 52.8481 64.2383 50.6422 64.5357L40.2001 65.9439Z" fill="white"/>
<path d="M50.6597 70.381C49.9287 70.4796 49.2621 69.9714 49.1653 69.2535C49.0685 68.5356 49.5767 67.869 50.2946 67.7722C51.0125 67.6754 51.679 68.1836 51.7758 68.9015C51.8727 69.6194 51.3776 70.2842 50.6597 70.381Z" fill="white"/>
<path d="M41.5228 71.6132C40.7918 71.7117 40.1253 71.2036 40.0284 70.4857C39.9316 69.7678 40.4398 69.1012 41.1577 69.0044C41.8756 68.9076 42.5422 69.4157 42.639 70.1336C42.7358 70.8515 42.2407 71.5164 41.5228 71.6132Z" fill="white"/>
</g>
<path d="M100.772 70.3851C99.4557 70.5625 98.244 70.5564 97.1367 70.3667C96.0273 70.1611 95.0402 69.7857 94.1756 69.2403L94.6536 67.5775C95.5457 68.0869 96.456 68.4323 97.3846 68.6138C98.3132 68.7954 99.3642 68.807 100.538 68.6488C101.965 68.4563 102.984 68.0525 103.595 67.4373C104.22 66.8041 104.474 66.0514 104.356 65.1793C104.262 64.4816 103.934 63.9609 103.371 63.617C102.823 63.271 101.947 63.0582 100.742 62.9786L98.2007 62.8127C96.6674 62.6966 95.48 62.332 94.6385 61.719C93.8108 61.088 93.3156 60.1699 93.1531 58.9648C93.0184 57.9659 93.1545 57.0595 93.5614 56.2459C93.9841 55.43 94.6276 54.754 95.4916 54.2177C96.3557 53.6814 97.3903 53.332 98.5954 53.1695C99.7212 53.0176 100.792 53.0589 101.809 53.2931C102.823 53.5115 103.708 53.9088 104.464 54.485L103.979 56.1002C103.178 55.5463 102.362 55.1801 101.531 55.0016C100.697 54.8073 99.7889 54.7764 98.8058 54.909C97.5531 55.0779 96.5937 55.506 95.9276 56.1931C95.2593 56.8645 94.9893 57.6758 95.1176 58.6272C95.2202 59.3883 95.5314 59.9599 96.0511 60.3419C96.5867 60.7217 97.3996 60.943 98.4898 61.0059L101.034 61.1956C102.68 61.3126 103.93 61.6607 104.783 62.2399C105.65 62.8011 106.161 63.6604 106.317 64.8179C106.444 65.7535 106.301 66.6122 105.89 67.3942C105.495 68.174 104.856 68.8252 103.974 69.3478C103.108 69.8682 102.04 70.214 100.772 70.3851ZM108.74 69.0925L106.479 52.3243L108.405 52.0645L109.364 59.1761C109.651 58.4271 110.111 57.8322 110.746 57.3914C111.395 56.9326 112.147 56.6455 113.003 56.53C115.747 56.1601 117.323 57.4973 117.734 60.5418L118.706 67.7485L116.779 68.0083L115.823 60.9205C115.678 59.8423 115.358 59.0862 114.864 58.6524C114.383 58.2006 113.683 58.0367 112.763 58.1608C111.701 58.304 110.897 58.7514 110.353 59.5029C109.822 60.2364 109.631 61.1502 109.778 62.2443L110.667 68.8327L108.74 69.0925ZM126.14 66.9639C125.015 67.1157 124.006 67.0015 123.115 66.6211C122.225 66.2407 121.489 65.6376 120.91 64.8116C120.344 63.9677 119.979 62.9353 119.814 61.7143C119.649 60.4934 119.729 59.409 120.053 58.4611C120.391 57.4953 120.939 56.711 121.698 56.1083C122.456 55.5055 123.398 55.1282 124.524 54.9764C125.634 54.8267 126.634 54.9421 127.525 55.3224C128.432 55.7006 129.168 56.3117 129.734 57.1557C130.313 57.9816 130.685 59.0051 130.85 60.226C131.015 61.4469 130.928 62.5403 130.59 63.5062C130.266 64.454 129.717 65.2304 128.943 65.8353C128.184 66.438 127.25 66.8142 126.14 66.9639ZM125.932 65.4179C127.01 65.2725 127.823 64.7754 128.37 63.9266C128.916 63.062 129.092 61.9161 128.9 60.489C128.705 59.0461 128.231 57.9879 127.479 57.3145C126.726 56.641 125.81 56.377 124.732 56.5224C123.638 56.67 122.817 57.1681 122.27 58.0169C121.738 58.8636 121.57 60.0083 121.764 61.4513C121.957 62.8784 122.423 63.9376 123.162 64.6291C123.914 65.3025 124.838 65.5654 125.932 65.4179ZM134.149 70.025L132.013 54.1844L133.892 53.931L134.171 56.0003C134.424 55.2397 134.864 54.6152 135.493 54.1268C136.135 53.6205 136.915 53.3053 137.835 53.1813C138.866 53.0423 139.795 53.1672 140.622 53.5561C141.463 53.927 142.151 54.5366 142.685 55.3848C143.233 56.2151 143.59 57.2486 143.757 58.4854C143.922 59.7063 143.851 60.7976 143.545 61.7591C143.252 62.7027 142.751 63.4726 142.04 64.069C141.345 64.6632 140.482 65.0298 139.452 65.1687C138.564 65.2885 137.744 65.1972 136.993 64.8949C136.242 64.5926 135.653 64.115 135.226 63.4622L136.076 69.7652L134.149 70.025ZM138.839 63.6773C139.917 63.5319 140.73 63.0348 141.278 62.186C141.823 61.3213 141.999 60.1755 141.807 58.7484C141.612 57.3055 141.139 56.2473 140.386 55.5738C139.633 54.9004 138.718 54.6364 137.639 54.7818C136.561 54.9272 135.748 55.4243 135.201 56.2731C134.653 57.1219 134.477 58.2677 134.671 59.7107C134.864 61.1377 135.338 62.1959 136.092 62.8852C136.845 63.5587 137.761 63.8227 138.839 63.6773ZM147.065 68.2833L144.928 52.4427L146.807 52.1893L147.086 54.2585C147.339 53.4979 147.779 52.8735 148.408 52.3851C149.05 51.8788 149.831 51.5636 150.75 51.4395C151.781 51.3005 152.71 51.4255 153.538 51.8144C154.379 52.1853 155.066 52.7949 155.6 53.6431C156.148 54.4733 156.506 55.5069 156.672 56.7437C156.837 57.9646 156.766 59.0559 156.46 60.0174C156.168 60.961 155.666 61.7309 154.955 62.3272C154.26 62.9214 153.398 63.288 152.367 63.427C151.479 63.5468 150.66 63.4555 149.908 63.1532C149.157 62.8508 148.568 62.3733 148.141 61.7205L148.991 68.0234L147.065 68.2833ZM151.754 61.9355C152.832 61.7901 153.645 61.293 154.193 60.4443C154.738 59.5796 154.915 58.4338 154.722 57.0067C154.528 55.5637 154.054 54.5055 153.301 53.8321C152.548 53.1587 151.633 52.8947 150.555 53.0401C149.476 53.1855 148.664 53.6826 148.116 54.5314C147.569 55.3801 147.392 56.526 147.587 57.9689C147.779 59.396 148.253 60.4542 149.008 61.1435C149.76 61.8169 150.676 62.081 151.754 61.9355ZM163.07 61.9836C162.278 62.0905 161.544 62.0361 160.869 61.8204C160.208 61.5866 159.658 61.2248 159.221 60.7349C158.784 60.2449 158.52 59.667 158.43 59.001C158.317 58.1606 158.441 57.4658 158.803 56.9165C159.181 56.3651 159.855 55.9189 160.826 55.5781C161.811 55.2192 163.176 54.9222 164.92 54.687L165.681 54.5843L165.581 53.847C165.449 52.8639 165.148 52.1861 164.678 51.8136C164.221 51.423 163.549 51.2877 162.661 51.4074C161.964 51.5015 161.304 51.6954 160.681 51.9892C160.057 52.2672 159.434 52.6741 158.812 53.2101L157.956 51.8966C158.501 51.3872 159.185 50.9479 160.007 50.5787C160.845 50.2074 161.66 49.9683 162.453 49.8614C163.943 49.6604 165.094 49.8765 165.906 50.5096C166.734 51.1407 167.252 52.2252 167.459 53.7633L168.441 61.0414L166.633 61.2852L166.364 59.2873C166.154 60.0097 165.759 60.6119 165.178 61.0939C164.613 61.5737 163.911 61.8703 163.07 61.9836ZM163.184 60.491C164.135 60.3627 164.868 59.9329 165.383 59.2015C165.896 58.4543 166.084 57.5733 165.947 56.5585L165.851 55.8449L165.114 55.9443C163.829 56.1176 162.823 56.3178 162.095 56.5452C161.38 56.7546 160.893 57.0302 160.632 57.3721C160.385 57.696 160.296 58.1117 160.364 58.6191C160.452 59.2692 160.746 59.7704 161.245 60.1228C161.761 60.4731 162.407 60.5958 163.184 60.491ZM176.943 60.1127C176.024 60.2367 175.187 60.1397 174.434 59.8215C173.696 59.5012 173.105 59.0078 172.66 58.3413L172.942 60.4343L171.063 60.6877L168.802 43.9195L170.729 43.6597L171.701 50.8665C171.942 50.1397 172.384 49.5311 173.028 49.0406C173.673 48.5501 174.439 48.245 175.327 48.1252C176.357 47.9862 177.286 48.1112 178.114 48.5001C178.955 48.871 179.643 49.4806 180.177 50.3288C180.725 51.159 181.082 52.1925 181.249 53.4294C181.413 54.6503 181.343 55.7416 181.036 56.7031C180.744 57.6467 180.242 58.4166 179.532 59.0129C178.837 59.6071 177.974 59.9737 176.943 60.1127ZM176.33 58.6212C177.409 58.4758 178.222 57.9787 178.769 57.13C179.314 56.2653 179.491 55.1195 179.298 53.6924C179.104 52.2494 178.63 51.1912 177.877 50.5178C177.125 49.8444 176.209 49.5804 175.131 49.7258C174.053 49.8712 173.24 50.3683 172.692 51.2171C172.145 52.0658 171.968 53.2117 172.163 54.6546C172.355 56.0817 172.829 57.1399 173.584 57.8292C174.337 58.5026 175.252 58.7667 176.33 58.6212ZM187.551 58.6821C186.378 58.8404 185.444 58.6192 184.75 58.0186C184.069 57.4001 183.64 56.4327 183.462 55.1167L181.717 42.1778L183.644 41.918L185.37 54.7141C185.598 56.4108 186.387 57.1682 187.735 56.9865C188.131 56.933 188.481 56.8373 188.786 56.6994L188.956 58.3232C188.48 58.5005 188.011 58.6201 187.551 58.6821ZM195.187 57.6525C193.363 57.8984 191.849 57.5618 190.643 56.6427C189.435 55.7077 188.707 54.3205 188.459 52.4812C188.299 51.2919 188.396 50.2133 188.749 49.2454C189.101 48.2615 189.656 47.4683 190.414 46.8655C191.186 46.2448 192.119 45.8606 193.213 45.7131C194.783 45.5014 196.08 45.8431 197.105 46.7381C198.128 47.6173 198.758 48.937 198.995 50.697L199.095 51.4344L190.39 52.6083C190.63 53.9159 191.147 54.8714 191.939 55.475C192.728 56.0628 193.741 56.2732 194.978 56.1064C195.676 56.0124 196.328 55.8195 196.934 55.5278C197.539 55.2203 198.093 54.7823 198.598 54.2137L199.447 55.4796C198.99 56.0418 198.376 56.5201 197.606 56.9145C196.834 57.2931 196.027 57.5391 195.187 57.6525ZM193.453 47.1337C192.359 47.2813 191.541 47.7387 190.999 48.5061C190.456 49.2735 190.205 50.2196 190.243 51.3445L197.26 50.3983C197.054 49.2313 196.622 48.3613 195.963 47.7882C195.321 47.2129 194.484 46.9948 193.453 47.1337ZM207.432 55.7831L206.075 45.7222L203.792 46.0301L203.59 44.5317L205.873 44.2237L205.819 43.8194C205.611 42.2813 205.835 41.0645 206.489 40.1691C207.159 39.2715 208.288 38.6671 209.877 38.356L210.798 38.1833L211.164 39.6355L210.079 39.8544C209.107 40.0663 208.433 40.4559 208.057 41.0232C207.698 41.5883 207.583 42.3545 207.713 43.3217L207.8 43.9639L211.13 43.5149L211.332 45.0133L208.002 45.4624L209.359 55.5233L207.432 55.7831ZM218.696 54.4821C216.872 54.728 215.357 54.3914 214.152 53.4723C212.944 52.5373 212.216 51.1502 211.968 49.3108C211.808 48.1216 211.904 47.043 212.258 46.075C212.61 45.0912 213.165 44.2979 213.923 43.6952C214.695 43.0744 215.628 42.6903 216.722 42.5427C218.292 42.331 219.589 42.6727 220.614 43.5678C221.637 44.447 222.267 45.7666 222.504 47.5267L222.604 48.264L213.898 49.438C214.139 50.7455 214.656 51.7011 215.447 52.3047C216.237 52.8924 217.25 53.1029 218.487 52.9361C219.185 52.842 219.837 52.6491 220.443 52.3575C221.048 52.0499 221.602 51.6119 222.107 51.0434L222.955 52.3093C222.498 52.8714 221.885 53.3497 221.115 53.7442C220.342 54.1228 219.536 54.3688 218.696 54.4821ZM216.962 43.9634C215.868 44.111 215.05 44.5684 214.508 45.3358C213.965 46.1031 213.713 47.0493 213.752 48.1742L220.769 47.228C220.563 46.061 220.131 45.191 219.472 44.6178C218.829 44.0426 217.993 43.8244 216.962 43.9634ZM230.403 52.9033C228.579 53.1492 227.065 52.8126 225.859 51.8935C224.651 50.9585 223.924 49.5713 223.675 47.732C223.515 46.5428 223.612 45.4642 223.966 44.4962C224.317 43.5124 224.872 42.7191 225.63 42.1163C226.402 41.4956 227.335 41.1114 228.43 40.9639C229.999 40.7522 231.297 41.0939 232.321 41.9889C233.344 42.8682 233.974 44.1878 234.212 45.9479L234.311 46.6852L225.606 47.8592C225.847 49.1667 226.363 50.1222 227.155 50.7258C227.944 51.3136 228.958 51.5241 230.194 51.3573C230.892 51.2632 231.544 51.0703 232.151 50.7786C232.755 50.4711 233.309 50.0331 233.814 49.4645L234.663 50.7305C234.206 51.2926 233.592 51.7709 232.822 52.1653C232.05 52.544 231.243 52.7899 230.403 52.9033ZM228.67 42.3846C227.576 42.5321 226.757 42.9896 226.215 43.7569C225.673 44.5243 225.421 45.4704 225.46 46.5954L232.476 45.6491C232.27 44.4822 231.838 43.6121 231.18 43.039C230.537 42.4637 229.7 42.2456 228.67 42.3846ZM241.302 51.4335C240.271 51.5725 239.334 51.4486 238.491 51.0618C237.663 50.6729 236.976 50.0633 236.428 49.2331C235.894 48.3849 235.544 47.3503 235.38 46.1294C235.213 44.8926 235.276 43.8024 235.568 42.8588C235.875 41.8973 236.376 41.1273 237.073 40.549C237.784 39.9527 238.654 39.585 239.685 39.446C240.589 39.3241 241.409 39.4154 242.144 39.7199C242.895 40.0222 243.484 40.4997 243.911 41.1525L242.936 33.922L244.863 33.6622L247.124 50.4304L245.245 50.6838L244.959 48.5669C244.725 49.3412 244.286 49.9816 243.644 50.4879C243.002 50.9943 242.221 51.3095 241.302 51.4335ZM241.498 49.833C242.576 49.6875 243.389 49.1904 243.936 48.3417C244.481 47.477 244.658 46.3312 244.465 44.9041C244.271 43.4611 243.797 42.403 243.044 41.7295C242.292 41.0561 241.376 40.7921 240.298 40.9375C239.204 41.085 238.383 41.5832 237.836 42.432C237.304 43.2786 237.135 44.4234 237.33 45.8663C237.523 47.2934 237.988 48.3527 238.727 49.0441C239.48 49.7176 240.403 49.9805 241.498 49.833ZM253.718 49.7591C252.814 49.881 251.94 49.8696 251.097 49.725C250.255 49.5803 249.54 49.3134 248.955 48.9241L249.391 47.485C250.024 47.8678 250.696 48.1243 251.408 48.2543C252.133 48.3664 252.853 48.3743 253.566 48.2781C254.47 48.1562 255.129 47.8977 255.544 47.5027C255.959 47.1077 256.128 46.6248 256.051 46.054C255.991 45.61 255.794 45.2815 255.458 45.0684C255.121 44.8395 254.617 44.6975 253.948 44.6424L251.719 44.4586C249.695 44.2957 248.575 43.4134 248.359 41.8119C248.218 40.7654 248.517 39.8694 249.256 39.124C250.011 38.3764 251.062 37.9117 252.41 37.7299C253.203 37.623 253.973 37.6483 254.721 37.8058C255.482 37.9453 256.133 38.2208 256.673 38.6323L256.214 40.0746C255.696 39.7085 255.113 39.4562 254.465 39.3176C253.83 39.161 253.212 39.1233 252.609 39.2046C251.721 39.3243 251.071 39.5896 250.658 40.0005C250.245 40.4113 250.077 40.9022 250.154 41.473C250.274 42.361 250.938 42.8527 252.145 42.9482L254.371 43.1082C255.415 43.1933 256.232 43.4464 256.822 43.8674C257.409 44.2725 257.759 44.8873 257.87 45.7119C258.013 46.7742 257.706 47.6713 256.949 48.403C256.19 49.1189 255.113 49.5709 253.718 49.7591Z" fill="#FAFAFA"/>
<defs>
<filter id="filter0_d_2151_5319" x="-2.59771" y="24.0522" width="97.1819" height="97.1819" filterUnits="userSpaceOnUse" color-interpolation-filters="sRGB">
<feFlood flood-opacity="0" result="BackgroundImageFix"/>
<feColorMatrix in="SourceAlpha" type="matrix" values="0 0 0 0 0 0 0 0 0 0 0 0 0 0 0 0 0 0 127 0" result="hardAlpha"/>
<feOffset dy="3.16097"/>
<feGaussianBlur stdDeviation="8.29756"/>
<feComposite in2="hardAlpha" operator="out"/>
<feColorMatrix type="matrix" values="0 0 0 0 0 0 0 0 0 0 0 0 0 0 0 0 0 0 0.06 0"/>
<feBlend mode="normal" in2="BackgroundImageFix" result="effect1_dropShadow_2151_5319"/>
<feBlend mode="normal" in="SourceGraphic" in2="effect1_dropShadow_2151_5319" result="shape"/>
</filter>
</defs>
</svg>
