<svg width="26" height="25" viewBox="0 0 26 25" fill="none" xmlns="http://www.w3.org/2000/svg">
<path d="M9.32411 7.05093L16.5234 6.95111C19.9231 6.90397 20.2851 8.4891 20.542 10.4257L21.5459 17.9125C21.87 20.3683 21.1379 22.3886 17.6382 22.4371L8.6491 22.5618C5.13943 22.6104 4.35164 20.6112 4.6175 18.1473L5.41344 10.6355C5.60652 8.69263 5.92444 7.09807 9.32411 7.05093Z" stroke="white" stroke-width="1.5" stroke-linecap="round" stroke-linejoin="round"/>
<path d="M8.94525 8.55606L8.89672 5.0564C8.87593 3.55654 9.86196 2.54278 11.3618 2.52198L14.3615 2.48039C15.8614 2.45959 16.8752 3.44563 16.896 4.94548L16.9445 8.44515" stroke="white" stroke-width="1.5" stroke-linecap="round" stroke-linejoin="round"/>
<path d="M21.4789 17.4119L9.07007 17.584" stroke="white" stroke-width="1.5" stroke-linecap="round" stroke-linejoin="round"/>
</svg>
