<svg width="220" height="93" viewBox="0 0 220 93" fill="none" xmlns="http://www.w3.org/2000/svg">
<rect x="7.65576" y="9.77002" width="208.898" height="72.8982" rx="36.4491" transform="rotate(-2.67934 7.65576 9.77002)" fill="url(#paint0_linear_2151_5331)"/>
<g filter="url(#filter0_d_2151_5331)">
<rect x="16.021" y="17.3872" width="56.8982" height="56.8982" rx="28.4491" transform="rotate(-2.67934 16.021 17.3872)" fill="#FEC7EF" shape-rendering="crispEdges"/>
<path d="M49.9832 58.452L42.8787 58.7846C36.3795 59.0888 33.4867 56.4421 33.1831 49.956L32.9065 44.0487C32.8813 43.5093 33.3077 43.0411 33.8471 43.0158C34.3865 42.9906 34.8548 43.417 34.88 43.9564L35.1565 49.8636C35.4084 55.2446 37.4054 57.063 42.7864 56.8111L49.8777 56.4792C55.2586 56.2273 57.077 54.2303 56.8252 48.8493L56.5486 42.9421C56.5234 42.4027 56.9498 41.9344 57.4892 41.9092C58.0286 41.8839 58.4969 42.3103 58.5221 42.8497L58.7986 48.7569C59.1154 55.2424 56.4693 58.1484 49.9832 58.452Z" fill="#FAFAFA"/>
<path d="M45.8151 45.462C44.3679 45.5298 43.0257 45.0256 42.043 44.03C41.0602 43.0343 40.5626 41.6996 40.6396 40.2456L41.1097 31.4158C41.1389 30.9134 41.5415 30.499 42.0546 30.475L48.1986 30.1874C48.7117 30.1634 49.1506 30.5252 49.2272 31.0358L50.5201 39.7831C50.7325 41.2235 50.3618 42.5989 49.4764 43.682C48.5514 44.767 47.2623 45.3943 45.8151 45.462ZM43.0284 32.4072L42.6092 40.3512C42.5583 41.237 42.8602 42.0535 43.4411 42.6328C44.6173 43.8172 46.8539 43.7125 47.9143 42.4234C48.438 41.7792 48.6623 40.938 48.5295 40.074L47.37 32.204L43.0284 32.4072Z" fill="#FAFAFA"/>
<path d="M54.1168 45.0732C51.4461 45.1983 48.9638 43.1521 48.5631 40.5074L47.2104 31.3279C47.1712 31.0528 47.2504 30.7722 47.4247 30.5531C47.599 30.334 47.8566 30.2032 48.1461 30.1897L52.1588 30.0019C56.0268 29.8208 57.9049 31.3547 58.6303 35.3027L59.1699 38.9429C59.4005 40.488 58.9958 41.9837 58.0351 43.1494C57.0744 44.3151 55.6825 45 54.1168 45.0732ZM49.3304 32.112L50.5273 40.2177C50.7753 41.8542 52.3668 43.1774 54.0245 43.0998C55.0244 43.053 55.9011 42.6296 56.5132 41.9021C57.112 41.1752 57.3577 40.2276 57.2189 39.232L56.6811 35.6312C56.1341 32.677 55.1324 31.8405 52.2511 31.9753L49.3304 32.112Z" fill="#FAFAFA"/>
<path d="M37.4476 45.8537C35.882 45.927 34.4321 45.3751 33.3667 44.3043C32.3013 43.2334 31.7587 41.782 31.8439 40.2222L32.0298 36.5875C32.3946 32.549 34.1212 30.8464 37.9892 30.6653L42.0019 30.4775C42.2782 30.4645 42.5469 30.5706 42.7541 30.7719C42.9613 30.9732 43.0532 31.2457 43.0398 31.5233L42.5505 40.789C42.3986 43.4596 40.1183 45.7287 37.4476 45.8537ZM38.0816 32.6388C35.2003 32.7736 34.2806 33.6869 34.0006 36.7194L33.8135 40.3278C33.755 41.3326 34.1014 42.2525 34.7655 42.9203C35.4297 43.588 36.3422 43.9276 37.3552 43.8802C39.0129 43.8026 40.4869 42.336 40.5678 40.6841L41.0023 32.502L38.0816 32.6388Z" fill="#FAFAFA"/>
<path d="M49.72 58.4644L43.1418 58.7723C42.6024 58.7976 42.1341 58.3712 42.1089 57.8318L41.9549 54.5427C41.8256 51.7798 43.2678 50.196 46.0306 50.0667C48.7935 49.9374 50.3773 51.3795 50.5066 54.1424L50.6605 57.4315C50.6858 57.9709 50.2594 58.4392 49.72 58.4644ZM44.0361 56.7527L48.6409 56.5371L48.5331 54.2348C48.4555 52.5771 47.7807 51.9626 46.123 52.0402C44.4653 52.1178 43.8508 52.7926 43.9284 54.4503L44.0361 56.7527Z" fill="#FAFAFA"/>
</g>
<path d="M100.399 50.1438C99.0726 50.2059 97.8661 50.0942 96.7795 49.8086C95.6923 49.5071 94.7417 49.0471 93.9279 48.4284L94.5491 46.8136C95.3934 47.3988 96.2701 47.8223 97.1794 48.0841C98.0886 48.3458 99.1346 48.4491 100.317 48.3937C101.756 48.3264 102.806 48.0129 103.469 47.4534C104.147 46.877 104.465 46.1494 104.424 45.2703C104.391 44.5671 104.109 44.0197 103.578 43.6281C103.063 43.2357 102.209 42.9473 101.015 42.7629L98.498 42.3762C96.9807 42.1268 95.8296 41.6601 95.0448 40.9761C94.2752 40.2753 93.8619 39.3176 93.8051 38.1029C93.758 37.096 93.9726 36.205 94.4488 35.4299C94.9411 34.654 95.641 34.0366 96.5486 33.5777C97.4561 33.1188 98.5172 32.8609 99.7319 32.804C100.867 32.7509 101.93 32.8854 102.922 33.2073C103.914 33.5133 104.761 33.9862 105.463 34.6261L104.84 36.193C104.09 35.5713 103.309 35.1354 102.496 34.8851C101.683 34.6188 100.781 34.5089 99.7898 34.5552C98.5272 34.6143 97.5341 34.9571 96.8106 35.5836C96.0864 36.1942 95.7467 36.9789 95.7916 37.9378C95.8275 38.705 96.0876 39.3015 96.5721 39.7273C97.0725 40.1524 97.863 40.4437 98.9435 40.6014L101.461 41.0122C103.091 41.2722 104.306 41.728 105.105 42.3793C105.92 43.0139 106.354 43.9146 106.409 45.0813C106.453 46.0243 106.236 46.8673 105.759 47.6105C105.297 48.3529 104.604 48.9459 103.68 49.3896C102.771 49.8326 101.678 50.084 100.399 50.1438ZM113.088 49.55C111.714 49.6143 110.666 49.3029 109.945 48.6159C109.223 47.9129 108.83 46.8741 108.766 45.4996L108.48 39.3863L106.202 39.4929L106.132 37.9825L108.409 37.8759L108.242 34.3039L110.184 34.213L110.351 37.7851L114.043 37.6123L114.114 39.1226L110.422 39.2954L110.699 45.2169C110.742 46.1279 110.966 46.8142 111.372 47.2757C111.777 47.7213 112.411 47.9238 113.274 47.8835C113.53 47.8715 113.784 47.8276 114.037 47.7517C114.29 47.6758 114.518 47.601 114.723 47.5273L115.128 48.998C114.926 49.1196 114.627 49.2377 114.232 49.3523C113.837 49.4669 113.456 49.5328 113.088 49.55ZM120.561 49.2003C119.427 49.2534 118.432 49.0516 117.578 48.5951C116.723 48.1385 116.044 47.4736 115.538 46.6002C115.048 45.7102 114.774 44.6498 114.717 43.4192C114.659 42.1885 114.833 41.1152 115.239 40.1992C115.66 39.2665 116.274 38.533 117.082 37.9987C117.89 37.4643 118.861 37.1706 119.996 37.1175C121.115 37.0651 122.101 37.2672 122.955 37.7238C123.826 38.1796 124.506 38.8526 124.996 39.7426C125.501 40.6159 125.783 41.6679 125.84 42.8986C125.898 44.1292 125.716 45.2109 125.296 46.1436C124.89 47.0596 124.275 47.7851 123.451 48.3202C122.643 48.8546 121.68 49.1479 120.561 49.2003ZM120.488 47.642C121.575 47.5911 122.428 47.1668 123.048 46.3689C123.666 45.5551 123.942 44.429 123.875 42.9906C123.807 41.5362 123.427 40.4407 122.736 39.7042C122.045 38.9677 121.156 38.6249 120.069 38.6758C118.966 38.7274 118.105 39.1521 117.486 39.9499C116.882 40.747 116.614 41.8727 116.683 43.3272C116.75 44.7656 117.121 45.8614 117.797 46.6146C118.489 47.3511 119.386 47.6936 120.488 47.642ZM128.071 48.6326L127.526 36.9813L129.42 36.8927L129.517 38.9784C130.075 37.5428 131.317 36.7078 133.244 36.4735L133.936 36.369L134.158 38.0404L132.942 38.2415C131.844 38.389 131.022 38.7799 130.475 39.4142C129.927 40.0324 129.677 40.861 129.726 41.8999L130.037 48.5406L128.071 48.6326ZM140.824 48.252C138.986 48.338 137.507 47.8707 136.386 46.85C135.264 45.8133 134.66 44.3679 134.573 42.514C134.517 41.3153 134.707 40.2492 135.144 39.3158C135.58 38.3663 136.202 37.6245 137.01 37.0901C137.833 36.539 138.796 36.2377 139.899 36.1861C141.481 36.112 142.744 36.5655 143.687 37.5465C144.629 38.5115 145.141 39.881 145.224 41.6551L145.259 42.3983L136.485 42.8089C136.611 44.1325 137.042 45.1294 137.778 45.7997C138.513 46.4541 139.504 46.7521 140.751 46.6937C141.454 46.6608 142.121 46.5255 142.75 46.2878C143.379 46.0342 143.97 45.6461 144.522 45.1237L145.257 46.4588C144.753 46.979 144.1 47.402 143.298 47.7278C142.496 48.0376 141.671 48.2124 140.824 48.252ZM140.014 37.6223C138.911 37.6739 138.056 38.0582 137.449 38.7754C136.842 39.4926 136.509 40.4132 136.449 41.5372L143.522 41.2062C143.418 40.0258 143.064 39.1213 142.458 38.493C141.868 37.8639 141.053 37.5736 140.014 37.6223ZM156.145 47.535C154.962 47.5904 154.051 47.2887 153.411 46.6298C152.787 45.9543 152.444 44.9532 152.382 43.6267L151.772 30.5849L153.713 30.4941L154.317 43.392C154.397 45.1021 155.116 45.9254 156.475 45.8618C156.874 45.8431 157.232 45.7783 157.547 45.6675L157.575 47.2999C157.085 47.435 156.608 47.5134 156.145 47.535ZM157.777 32.6585L157.675 30.4769L160.072 30.3647L160.174 32.5463L157.777 32.6585ZM158.697 47.1994L158.152 35.5481L160.094 35.4572L160.639 47.1085L158.697 47.1994ZM163.31 46.9835L162.765 35.3322L164.659 35.2436L164.752 37.2334C165.101 36.4803 165.619 35.9034 166.305 35.5029C166.991 35.1024 167.774 34.8816 168.653 34.8405C171.418 34.7111 172.872 36.1807 173.016 39.2493L173.355 46.5134L171.414 46.6043L171.079 39.4601C171.028 38.3733 170.776 37.5922 170.321 37.117C169.881 36.625 169.198 36.4007 168.271 36.4441C167.2 36.4942 166.361 36.8698 165.753 37.571C165.16 38.2554 164.89 39.1491 164.942 40.2519L165.252 46.8926L163.31 46.9835ZM175.977 46.3907L175.186 29.4892L177.128 29.3983L177.616 39.8269L177.664 39.8247L182.816 34.3939L185.285 34.2783L179.698 40.162L186.334 45.906L183.865 46.0216L177.711 40.8316L177.663 40.8338L177.919 46.2998L175.977 46.3907Z" fill="#FAFAFA"/>
<defs>
<filter id="filter0_d_2151_5331" x="-0.574116" y="1.2934" width="92.686" height="92.6858" filterUnits="userSpaceOnUse" color-interpolation-filters="sRGB">
<feFlood flood-opacity="0" result="BackgroundImageFix"/>
<feColorMatrix in="SourceAlpha" type="matrix" values="0 0 0 0 0 0 0 0 0 0 0 0 0 0 0 0 0 0 127 0" result="hardAlpha"/>
<feOffset dy="3.16097"/>
<feGaussianBlur stdDeviation="8.29756"/>
<feComposite in2="hardAlpha" operator="out"/>
<feColorMatrix type="matrix" values="0 0 0 0 0 0 0 0 0 0 0 0 0 0 0 0 0 0 0.06 0"/>
<feBlend mode="normal" in2="BackgroundImageFix" result="effect1_dropShadow_2151_5331"/>
<feBlend mode="normal" in="SourceGraphic" in2="effect1_dropShadow_2151_5331" result="shape"/>
</filter>
<linearGradient id="paint0_linear_2151_5331" x1="7.65576" y1="9.77002" x2="210.928" y2="95.9389" gradientUnits="userSpaceOnUse">
<stop stop-color="#4568DC"/>
<stop offset="1" stop-color="#B06AB3"/>
</linearGradient>
</defs>
</svg>
