<svg width="20" height="20" viewBox="0 0 20 20" fill="none" xmlns="http://www.w3.org/2000/svg">
<path d="M6.2918 18.1251C13.8371 18.1251 17.9652 11.8724 17.9652 6.45167C17.9652 6.27589 17.9613 6.0962 17.9535 5.92042C18.7566 5.33967 19.4496 4.62033 20 3.7962C19.2521 4.12896 18.458 4.34627 17.6449 4.44074C18.5011 3.92755 19.1421 3.12135 19.4492 2.17159C18.6438 2.64892 17.763 2.98563 16.8445 3.1673C16.2257 2.50976 15.4075 2.07439 14.5164 1.9285C13.6253 1.78261 12.711 1.93433 11.9148 2.3602C11.1186 2.78607 10.4848 3.46238 10.1115 4.28455C9.7382 5.10672 9.6462 6.02897 9.8496 6.9087C8.2187 6.82686 6.6233 6.40321 5.1667 5.6652C3.71 4.9272 2.4247 3.89132 1.3941 2.62472C0.8703 3.52782 0.71 4.59649 0.9459 5.61353C1.1817 6.63057 1.7959 7.51966 2.6637 8.10011C2.0122 8.07943 1.375 7.90402 0.804699 7.58839V7.63917C0.804099 8.58691 1.1317 9.50561 1.7319 10.2391C2.3321 10.9726 3.1678 11.4756 4.0969 11.6626C3.4934 11.8277 2.86 11.8518 2.2457 11.7329C2.5079 12.548 3.018 13.2609 3.7048 13.7721C4.3916 14.2833 5.2209 14.5673 6.077 14.5845C4.6237 15.726 2.8285 16.3452 0.980499 16.3423C0.652699 16.3418 0.3253 16.3217 0 16.2821C1.8774 17.4866 4.0613 18.1263 6.2918 18.1251Z" fill="#A3A3A3"/>
</svg>
