<svg width="47" height="46" viewBox="0 0 47 46" fill="none" xmlns="http://www.w3.org/2000/svg">
<rect x="3.5" y="3" width="40" height="40" rx="20" fill="#F5F5F5"/>
<g clip-path="url(#clip0_1175_43582)">
<path d="M22.3326 25.8332L18.9992 22.4999M18.9992 22.4999L15.6659 25.8332M18.9992 22.4999V29.9999M25.9909 27.8249C26.8037 27.3818 27.4458 26.6806 27.8158 25.8321C28.1858 24.9835 28.2627 24.0359 28.0344 23.1388C27.8061 22.2417 27.2855 21.4462 26.5548 20.8778C25.8241 20.3094 24.925 20.0005 23.9992 19.9999H22.9492C22.697 19.0243 22.2269 18.1185 21.5742 17.3507C20.9215 16.5829 20.1033 15.9731 19.181 15.5671C18.2587 15.161 17.2564 14.9694 16.2493 15.0065C15.2423 15.0436 14.2568 15.3085 13.3669 15.7813C12.477 16.2541 11.7058 16.9225 11.1114 17.7362C10.517 18.55 10.1148 19.4879 9.93505 20.4794C9.75529 21.4709 9.80266 22.4903 10.0736 23.461C10.3445 24.4316 10.8319 25.3281 11.4992 26.0832" stroke="#525252" stroke-width="1.66667" stroke-linecap="round" stroke-linejoin="round"/>
</g>
<rect x="3.5" y="3" width="40" height="40" rx="20" stroke="#FAFAFA" stroke-width="6"/>
<defs>
<clipPath id="clip0_1175_43582">
<rect width="20" height="20" fill="white" transform="translate(9 12.5)"/>
</clipPath>
</defs>
</svg>
