<svg width="16" height="16" viewBox="0 0 16 16" fill="none" xmlns="http://www.w3.org/2000/svg">
<path fill-rule="evenodd" clip-rule="evenodd" d="M5.34778 1.59697C5.85112 0.647391 6.84948 0 8 0C9.15052 0 10.1489 0.647391 10.6522 1.59697C11.6796 1.28143 12.8433 1.5296 13.6569 2.34315C14.4704 3.15669 14.7186 4.32041 14.403 5.34778C15.3526 5.85112 16 6.84948 16 8C16 9.15052 15.3526 10.1489 14.403 10.6522C14.7186 11.6796 14.4704 12.8433 13.6569 13.6569C12.8433 14.4704 11.6796 14.7186 10.6522 14.403C10.1489 15.3526 9.15052 16 8 16C6.84947 16 5.85112 15.3526 5.34778 14.403C4.32041 14.7186 3.15669 14.4704 2.34314 13.6569C1.52961 12.8433 1.28144 11.6796 1.59698 10.6522C0.647392 10.1489 0 9.15052 0 8C0 6.84948 0.647391 5.85112 1.59697 5.34778C1.28143 4.32041 1.5296 3.15669 2.34314 2.34314C3.15669 1.5296 4.32041 1.28143 5.34778 1.59697ZM11.81 5.99246C11.8686 6.05104 11.8686 6.14602 11.81 6.20459L7.07236 10.9422C7.01378 11.0008 6.91881 11.0008 6.86023 10.9422L4.24393 8.32591C4.18536 8.26734 4.18536 8.17236 4.24393 8.11378L5.09246 7.26525C5.15104 7.20668 5.24602 7.20668 5.30459 7.26525L6.86023 8.82089C6.91881 8.87947 7.01378 8.87947 7.07236 8.82089L10.7493 5.14393C10.8079 5.08536 10.9029 5.08536 10.9614 5.14393L11.81 5.99246Z" fill="#1DA1F2"/>
<path d="M11.81 6.20459C11.8686 6.14602 11.8686 6.05104 11.81 5.99246L10.9614 5.14393C10.9029 5.08536 10.8079 5.08536 10.7493 5.14393L7.07236 8.82089C7.01378 8.87947 6.91881 8.87947 6.86023 8.82089L5.30459 7.26525C5.24602 7.20668 5.15104 7.20668 5.09246 7.26525L4.24393 8.11378C4.18536 8.17236 4.18536 8.26734 4.24393 8.32591L6.86023 10.9422C6.91881 11.0008 7.01378 11.0008 7.07236 10.9422L11.81 6.20459Z" fill="white"/>
</svg>
