<svg width="34" height="35" viewBox="0 0 34 35" fill="none" xmlns="http://www.w3.org/2000/svg">
<path fill-rule="evenodd" clip-rule="evenodd" d="M11.364 3.89357C12.4336 1.87571 14.5551 0.5 17 0.5C19.4449 0.5 21.5664 1.87571 22.636 3.89356C24.8191 3.22304 27.292 3.7504 29.0208 5.47918C30.7496 7.20796 31.277 9.68086 30.6064 11.864C32.6243 12.9336 34 15.0551 34 17.5C34 19.9449 32.6243 22.0664 30.6064 23.136C31.2769 25.3191 30.7496 27.792 29.0208 29.5208C27.292 31.2496 24.8191 31.7769 22.636 31.1064C21.5664 33.1243 19.4449 34.5 17 34.5C14.5551 34.5 12.4336 33.1243 11.364 31.1064C9.18087 31.7769 6.70796 31.2496 4.97918 29.5208C3.25041 27.792 2.72306 25.3191 3.39357 23.136C1.37571 22.0664 0 19.9449 0 17.5C0 15.0551 1.37571 12.9336 3.39357 11.864C2.72304 9.68086 3.25041 7.20796 4.97918 5.47918C6.70796 3.7504 9.18087 3.22305 11.364 3.89357ZM25.0962 13.234C25.2207 13.3585 25.2207 13.5603 25.0962 13.6848L15.0288 23.7522C14.9043 23.8767 14.7025 23.8767 14.578 23.7522L9.01836 18.1926C8.89388 18.0681 8.89388 17.8663 9.01836 17.7418L10.8215 15.9387C10.946 15.8142 11.1478 15.8142 11.2723 15.9387L14.578 19.2444C14.7025 19.3689 14.9043 19.3689 15.0288 19.2444L22.8423 11.4309C22.9668 11.3064 23.1686 11.3064 23.2931 11.4309L25.0962 13.234Z" fill="#1DA1F2"/>
<path d="M25.0962 13.6848C25.2207 13.5603 25.2207 13.3585 25.0962 13.234L23.2931 11.4309C23.1686 11.3064 22.9668 11.3064 22.8423 11.4309L15.0288 19.2444C14.9043 19.3689 14.7025 19.3689 14.578 19.2444L11.2723 15.9387C11.1478 15.8142 10.946 15.8142 10.8215 15.9387L9.01836 17.7418C8.89388 17.8663 8.89388 18.0681 9.01836 18.1926L14.578 23.7522C14.7025 23.8767 14.9043 23.8767 15.0288 23.7522L25.0962 13.6848Z" fill="white"/>
</svg>
