<svg width="24" height="24" viewBox="0 0 17 16" fill="none" xmlns="http://www.w3.org/2000/svg">
<path fill-rule="evenodd" clip-rule="evenodd" d="M5.84778 1.59697C6.35112 0.647392 7.34948 0 8.5 0C9.65052 0 10.6489 0.647391 11.1522 1.59697C12.1796 1.28143 13.3433 1.5296 14.1569 2.34315C14.9704 3.15669 15.2186 4.32041 14.903 5.34778C15.8526 5.85112 16.5 6.84948 16.5 8C16.5 9.15052 15.8526 10.1489 14.903 10.6522C15.2186 11.6796 14.9704 12.8433 14.1569 13.6569C13.3433 14.4704 12.1796 14.7186 11.1522 14.403C10.6489 15.3526 9.65052 16 8.5 16C7.34947 16 6.35112 15.3526 5.84778 14.403C4.82041 14.7186 3.65669 14.4704 2.84314 13.6569C2.02961 12.8433 1.78144 11.6796 2.09698 10.6522C1.14739 10.1489 0.5 9.15052 0.5 8C0.5 6.84948 1.14739 5.85112 2.09697 5.34778C1.78143 4.32041 2.0296 3.15669 2.84314 2.34314C3.65669 1.5296 4.82041 1.28143 5.84778 1.59697ZM12.31 5.99246C12.3686 6.05104 12.3686 6.14602 12.31 6.20459L7.57236 10.9422C7.51378 11.0008 7.41881 11.0008 7.36023 10.9422L4.74393 8.32591C4.68536 8.26734 4.68536 8.17236 4.74393 8.11378L5.59246 7.26525C5.65104 7.20668 5.74602 7.20668 5.80459 7.26525L7.36023 8.82089C7.41881 8.87947 7.51378 8.87947 7.57236 8.82089L11.2493 5.14393C11.3079 5.08536 11.4029 5.08536 11.4614 5.14393L12.31 5.99246Z" fill="#1DA1F2"/>
<path d="M12.31 6.20459C12.3686 6.14602 12.3686 6.05104 12.31 5.99246L11.4614 5.14393C11.4029 5.08536 11.3079 5.08536 11.2493 5.14393L7.57236 8.82089C7.51378 8.87947 7.41881 8.87947 7.36023 8.82089L5.80459 7.26525C5.74602 7.20668 5.65104 7.20668 5.59246 7.26525L4.74393 8.11378C4.68536 8.17236 4.68536 8.26734 4.74393 8.32591L7.36023 10.9422C7.41881 11.0008 7.51378 11.0008 7.57236 10.9422L12.31 6.20459Z" fill="white"/>
</svg>
