<svg width="30" height="30" viewBox="0 0 30 30" fill="none" xmlns="http://www.w3.org/2000/svg">
<g clip-path="url(#clip0_3340_5032)">
<path d="M15 30.0001C23.2843 30.0001 30 23.2843 30 15.0001C30 6.71579 23.2843 0 15 0C6.71573 0 0 6.71579 0 15.0001C0 23.2843 6.71573 30.0001 15 30.0001Z" fill="#6369D1"/>
<path d="M19.8469 29.175C20.0441 29.1141 20.2401 29.049 20.4347 28.98C20.9008 28.7992 21.3577 28.5952 21.8034 28.3688C22.2494 28.1416 22.6837 27.8922 23.1047 27.6216C23.5252 27.3514 23.932 27.0604 24.3234 26.7497C24.715 26.4393 25.0908 26.1095 25.4494 25.7616C25.8088 25.4126 26.1504 25.0459 26.4731 24.6628C26.795 24.2807 27.0975 23.8827 27.3797 23.4703C27.6621 23.0571 27.9237 22.63 28.1634 22.1906C28.403 21.7518 28.6204 21.3012 28.815 20.8406C29.0102 20.3804 29.1823 19.9108 29.3306 19.4334C29.3566 19.3353 29.3816 19.2368 29.4056 19.1381L21.0712 10.8047C21.0741 10.8141 21.0769 10.8159 21.0787 10.8159L21.0722 10.8084C20.7272 10.4681 20.2406 10.3284 19.7006 10.3144C19.6963 10.3143 19.6919 10.3143 19.6875 10.3144H10.3125V10.3125C9.76594 10.3125 9.27187 10.4569 8.92594 10.8009C8.58187 11.1469 8.4375 11.6409 8.4375 12.1875V16.875C8.4375 17.0109 8.44687 17.1431 8.46562 17.2706C8.48156 17.3859 8.50969 17.4956 8.54344 17.6016C8.54719 17.6128 8.54719 17.6259 8.55094 17.6372C8.5896 17.752 8.64052 17.8623 8.70281 17.9662C8.74312 18.0337 8.79562 18.0909 8.84625 18.1509C8.8725 18.1828 8.89125 18.2194 8.92125 18.2484L8.93063 18.2578L19.8469 29.1741V29.175Z" fill="#4C5AB2"/>
<path d="M10.3125 10.3125C9.76594 10.3125 9.27188 10.4569 8.92594 10.8009C8.58188 11.1469 8.4375 11.6409 8.4375 12.1875V16.875C8.4375 17.4216 8.58375 17.9166 8.92969 18.2578C9.27656 18.5981 9.76875 18.7359 10.3125 18.7359L11.9437 18.7641C11.9469 18.7641 11.95 18.7641 11.9531 18.7641H14.7872L17.9241 22.3425C17.987 22.4139 18.0702 22.4644 18.1625 22.4873C18.2549 22.5103 18.352 22.5046 18.441 22.471C18.5301 22.4375 18.6068 22.3776 18.661 22.2994C18.7151 22.2211 18.7442 22.1283 18.7444 22.0331L18.7519 18.7537L19.6875 18.735C20.2312 18.735 20.7234 18.5981 21.0703 18.2569C21.4172 17.9166 21.5625 17.4225 21.5625 16.875V12.1875C21.5625 11.6409 21.4163 11.1487 21.0722 10.8094C20.7272 10.4681 20.2406 10.3284 19.7006 10.3144C19.6963 10.3143 19.6919 10.3143 19.6875 10.3144H10.3125V10.3125ZM10.3125 11.25H19.6744C20.0719 11.2603 20.2884 11.355 20.4122 11.4769C20.5369 11.5988 20.625 11.7966 20.625 12.1875V16.875C20.625 17.2659 20.5369 17.4694 20.4141 17.5894C20.2922 17.7094 20.0803 17.7975 19.6875 17.7975C19.6838 17.7975 19.68 17.7975 19.6762 17.7975L18.2719 17.8275C18.1495 17.8304 18.0332 17.8811 17.9477 17.9687C17.8622 18.0563 17.8143 18.1739 17.8144 18.2962L17.8088 20.79L15.3516 17.9878C15.3076 17.9378 15.2536 17.8977 15.1929 17.8703C15.1323 17.8428 15.0666 17.8285 15 17.8284H11.9569L10.3219 17.7984C10.3188 17.7984 10.3156 17.7984 10.3125 17.7984C9.91875 17.7984 9.70781 17.7094 9.58594 17.5903C9.46406 17.4694 9.375 17.2659 9.375 16.875V12.1875C9.375 11.7975 9.465 11.5875 9.58969 11.4647C9.7125 11.34 9.92156 11.25 10.3125 11.25Z" fill="white"/>
</g>
<defs>
<clipPath id="clip0_3340_5032">
<rect width="30" height="30" fill="white"/>
</clipPath>
</defs>
</svg>
