<svg width="30" height="22" viewBox="0 0 30 22" fill="none" xmlns="http://www.w3.org/2000/svg">
<g clip-path="url(#clip0_3339_5024)">
<path d="M2.04545 21.9993H6.81818V10.666L0 5.66602V19.9993C0 21.106 0.917045 21.9993 2.04545 21.9993Z" fill="#4285F4"/>
<path d="M23.1816 21.9993H27.9544C29.0862 21.9993 29.9998 21.1027 29.9998 19.9993V5.66602L23.1816 10.666" fill="#34A853"/>
<path d="M23.1816 1.99981V10.6665L29.9998 5.66648V2.99981C29.9998 0.526481 27.1123 -0.883519 25.0907 0.599814" fill="#FBBC04"/>
<path d="M6.81836 10.6667V2L15.0002 8L23.182 2V10.6667L15.0002 16.6667" fill="#EA4335"/>
<path d="M0 2.99981V5.66648L6.81818 10.6665V1.99981L4.90909 0.599814C2.88409 -0.883519 0 0.526481 0 2.99981Z" fill="#C5221F"/>
</g>
<defs>
<clipPath id="clip0_3339_5024">
<rect width="30" height="22" fill="white"/>
</clipPath>
</defs>
</svg>
