<svg width="30" height="30" viewBox="0 0 30 30" fill="none" xmlns="http://www.w3.org/2000/svg">
<g clip-path="url(#clip0_3338_5009)">
<path d="M15.0064 0.226562C8.83799 0.226562 7.03396 0.232926 6.68329 0.262017C5.41742 0.367244 4.62971 0.566562 3.77156 0.993835C3.11021 1.32224 2.58864 1.70293 2.07388 2.23656C1.13641 3.20974 0.568244 4.40702 0.362568 5.8302C0.262572 6.52111 0.233481 6.66202 0.227573 10.1911C0.2253 11.3675 0.227573 12.9157 0.227573 14.9922C0.227573 21.1559 0.234391 22.9582 0.263935 23.3082C0.366205 24.54 0.559381 25.315 0.968459 26.1627C1.75025 27.7854 3.24339 29.0036 5.00243 29.4582C5.6115 29.615 6.28421 29.7013 7.14782 29.7422C7.51372 29.7582 11.2431 29.7695 14.9749 29.7695C18.7066 29.7695 22.4383 29.765 22.7951 29.7468C23.795 29.6997 24.3757 29.6218 25.0177 29.4559C26.7881 28.9991 28.254 27.7991 29.0517 26.1536C29.4528 25.3263 29.6562 24.5218 29.7483 23.3543C29.7683 23.0997 29.7767 19.0413 29.7767 14.9884C29.7767 10.9347 29.7676 6.88384 29.7476 6.62929C29.6544 5.44293 29.451 4.6452 29.0369 3.80202C28.6972 3.11179 28.3199 2.59634 27.7722 2.06929C26.7947 1.13565 25.5993 0.567472 24.1748 0.362017C23.4846 0.262244 23.3471 0.232699 19.8154 0.226562H15.0064Z" fill="url(#paint0_radial_3338_5009)"/>
<path d="M15.0064 0.226562C8.83799 0.226562 7.03396 0.232926 6.68329 0.262017C5.41742 0.367244 4.62971 0.566562 3.77156 0.993835C3.11021 1.32224 2.58864 1.70293 2.07388 2.23656C1.13641 3.20974 0.568244 4.40702 0.362568 5.8302C0.262572 6.52111 0.233481 6.66202 0.227573 10.1911C0.2253 11.3675 0.227573 12.9157 0.227573 14.9922C0.227573 21.1559 0.234391 22.9582 0.263935 23.3082C0.366205 24.54 0.559381 25.315 0.968459 26.1627C1.75025 27.7854 3.24339 29.0036 5.00243 29.4582C5.6115 29.615 6.28421 29.7013 7.14782 29.7422C7.51372 29.7582 11.2431 29.7695 14.9749 29.7695C18.7066 29.7695 22.4383 29.765 22.7951 29.7468C23.795 29.6997 24.3757 29.6218 25.0177 29.4559C26.7881 28.9991 28.254 27.7991 29.0517 26.1536C29.4528 25.3263 29.6562 24.5218 29.7483 23.3543C29.7683 23.0997 29.7767 19.0413 29.7767 14.9884C29.7767 10.9347 29.7676 6.88384 29.7476 6.62929C29.6544 5.44293 29.451 4.6452 29.0369 3.80202C28.6972 3.11179 28.3199 2.59634 27.7722 2.06929C26.7947 1.13565 25.5993 0.567472 24.1748 0.362017C23.4846 0.262244 23.3471 0.232699 19.8154 0.226562H15.0064Z" fill="url(#paint1_radial_3338_5009)"/>
<path d="M14.9995 4.0918C12.0369 4.0918 11.6651 4.10475 10.5015 4.15771C9.34014 4.21089 8.54744 4.39475 7.85382 4.66452C7.13634 4.94316 6.52772 5.31589 5.92138 5.92248C5.31458 6.52884 4.94186 7.13748 4.66233 7.85475C4.39188 8.54862 4.20779 9.34157 4.15552 10.5025C4.10348 11.6661 4.08984 12.0382 4.08984 15.0009C4.08984 17.9636 4.10303 18.3343 4.15575 19.4979C4.20916 20.6593 4.39302 21.452 4.66255 22.1457C4.94141 22.8632 5.31412 23.4718 5.9207 24.0782C6.52682 24.685 7.13543 25.0586 7.85246 25.3373C8.54653 25.607 9.33946 25.7909 10.5006 25.8441C11.6642 25.897 12.0357 25.91 14.9981 25.91C17.961 25.91 18.3317 25.897 19.4953 25.8441C20.6566 25.7909 21.4502 25.607 22.1443 25.3373C22.8615 25.0586 23.4693 24.685 24.0754 24.0782C24.6822 23.4718 25.0549 22.8632 25.3344 22.1459C25.6026 21.452 25.7867 20.6591 25.8412 19.4982C25.8935 18.3345 25.9071 17.9636 25.9071 15.0009C25.9071 12.0382 25.8935 11.6663 25.8412 10.5027C25.7867 9.34134 25.6026 8.54861 25.3344 7.85498C25.0549 7.13748 24.6822 6.52884 24.0754 5.92248C23.4686 5.31566 22.8618 4.94293 22.1436 4.66452C21.4482 4.39475 20.655 4.21089 19.4937 4.15771C18.3301 4.10475 17.9597 4.0918 14.9961 4.0918H14.9995ZM14.0209 6.05771C14.3114 6.05725 14.6354 6.05771 14.9995 6.05771C17.9122 6.05771 18.2574 6.06816 19.4076 6.12043C20.4712 6.16907 21.0484 6.3468 21.433 6.49612C21.942 6.69384 22.305 6.93021 22.6866 7.31202C23.0684 7.69384 23.3047 8.05748 23.5029 8.56657C23.6522 8.95066 23.8302 9.52793 23.8786 10.5916C23.9308 11.7416 23.9422 12.087 23.9422 14.9984C23.9422 17.9098 23.9308 18.2552 23.8786 19.4052C23.8299 20.4688 23.6522 21.0461 23.5029 21.4302C23.3052 21.9393 23.0684 22.3018 22.6866 22.6834C22.3047 23.0652 21.9423 23.3016 21.433 23.4993C21.0489 23.6493 20.4712 23.8266 19.4076 23.8752C18.2576 23.9275 17.9122 23.9388 14.9995 23.9388C12.0866 23.9388 11.7414 23.9275 10.5915 23.8752C9.52786 23.8261 8.95061 23.6484 8.56584 23.4991C8.05677 23.3013 7.69314 23.065 7.31134 22.6832C6.92953 22.3013 6.69317 21.9386 6.495 21.4293C6.34568 21.0452 6.16774 20.4679 6.11933 19.4043C6.06706 18.2543 6.0566 17.9088 6.0566 14.9957C6.0566 12.0825 6.06706 11.7388 6.11933 10.5888C6.16796 9.52521 6.34568 8.94793 6.495 8.56339C6.69272 8.0543 6.92953 7.69066 7.31134 7.30884C7.69314 6.92702 8.05677 6.69066 8.56584 6.49248C8.95038 6.34248 9.52786 6.16521 10.5915 6.11634C11.5978 6.07089 11.9878 6.05725 14.0209 6.05498V6.05771ZM20.8225 7.86907C20.0998 7.86907 19.5135 8.45475 19.5135 9.17771C19.5135 9.90043 20.0998 10.4868 20.8225 10.4868C21.5452 10.4868 22.1316 9.90043 22.1316 9.17771C22.1316 8.45498 21.5452 7.86862 20.8225 7.86862V7.86907ZM14.9995 9.39861C11.9057 9.39861 9.39741 11.907 9.39741 15.0009C9.39741 18.0948 11.9057 20.602 14.9995 20.602C18.0933 20.602 20.6007 18.0948 20.6007 15.0009C20.6007 11.907 18.0933 9.39861 14.9995 9.39861ZM14.9995 11.3645C17.0076 11.3645 18.6358 12.9925 18.6358 15.0009C18.6358 17.0091 17.0076 18.6373 14.9995 18.6373C12.9912 18.6373 11.3633 17.0091 11.3633 15.0009C11.3633 12.9925 12.9912 11.3645 14.9995 11.3645Z" fill="white"/>
</g>
<defs>
<radialGradient id="paint0_radial_3338_5009" cx="0" cy="0" r="1" gradientUnits="userSpaceOnUse" gradientTransform="translate(8.07585 32.0449) rotate(-90) scale(29.2792 27.2386)">
<stop stop-color="#FFDD55"/>
<stop offset="0.1" stop-color="#FFDD55"/>
<stop offset="0.5" stop-color="#FF543E"/>
<stop offset="1" stop-color="#C837AB"/>
</radialGradient>
<radialGradient id="paint1_radial_3338_5009" cx="0" cy="0" r="1" gradientUnits="userSpaceOnUse" gradientTransform="translate(-4.72324 2.35479) rotate(78.678) scale(13.0881 53.9616)">
<stop stop-color="#3771C8"/>
<stop offset="0.128" stop-color="#3771C8"/>
<stop offset="1" stop-color="#6600FF" stop-opacity="0"/>
</radialGradient>
<clipPath id="clip0_3338_5009">
<rect width="30" height="30" fill="white"/>
</clipPath>
</defs>
</svg>
