<svg width="30" height="30" viewBox="0 0 30 30" fill="none" xmlns="http://www.w3.org/2000/svg">
<g clip-path="url(#clip0_3338_5013)">
<path d="M15 30C23.2843 30 30 23.2843 30 15C30 6.71573 23.2843 0 15 0C6.71573 0 0 6.71573 0 15C0 23.2843 6.71573 30 15 30Z" fill="url(#paint0_linear_3338_5013)"/>
<path d="M10.1543 16.0967L11.9339 21.0224C11.9339 21.0224 12.1564 21.4833 12.3947 21.4833C12.6329 21.4833 16.1765 17.7968 16.1765 17.7968L20.1172 10.1855L10.2178 14.8252L10.1543 16.0967Z" fill="#C8DAEA"/>
<path d="M12.5136 17.3594L12.172 20.9901C12.172 20.9901 12.029 22.1026 13.1412 20.9901C14.2535 19.8776 15.3181 19.0197 15.3181 19.0197" fill="#A9C6D8"/>
<path d="M10.1865 16.2724L6.52575 15.0796C6.52575 15.0796 6.08825 14.9021 6.22912 14.4996C6.25812 14.4166 6.31662 14.346 6.49162 14.2246C7.30275 13.6592 21.5049 8.55461 21.5049 8.55461C21.5049 8.55461 21.9059 8.41949 22.1424 8.50936C22.2009 8.52747 22.2535 8.5608 22.2949 8.60593C22.3363 8.65107 22.365 8.70639 22.378 8.76624C22.4036 8.87194 22.4142 8.9807 22.4097 9.08936C22.4086 9.18336 22.3972 9.27049 22.3886 9.40711C22.3021 10.8027 19.7136 21.2187 19.7136 21.2187C19.7136 21.2187 19.5587 21.8282 19.0039 21.8491C18.8675 21.8535 18.7317 21.8304 18.6044 21.7812C18.4772 21.732 18.3611 21.6576 18.2632 21.5626C17.1744 20.626 13.4109 18.0967 12.5792 17.5405C12.5605 17.5277 12.5447 17.511 12.5329 17.4916C12.5211 17.4722 12.5137 17.4505 12.511 17.428C12.4994 17.3694 12.5631 17.2967 12.5631 17.2967C12.5631 17.2967 19.1164 11.4717 19.2907 10.8602C19.3042 10.8129 19.2532 10.7895 19.1847 10.8102C18.7495 10.9704 11.2042 15.7352 10.3715 16.2611C10.3116 16.2792 10.2482 16.2831 10.1865 16.2724Z" fill="white"/>
</g>
<defs>
<linearGradient id="paint0_linear_3338_5013" x1="15" y1="30" x2="15" y2="0" gradientUnits="userSpaceOnUse">
<stop stop-color="#1D93D2"/>
<stop offset="1" stop-color="#38B0E3"/>
</linearGradient>
<clipPath id="clip0_3338_5013">
<rect width="30" height="30" fill="white"/>
</clipPath>
</defs>
</svg>
