<svg width="30" height="24" viewBox="0 0 30 24" fill="none" xmlns="http://www.w3.org/2000/svg">
<g clip-path="url(#clip0_3339_5030)">
<path d="M26.8489 6.03374C26.8671 6.28903 26.8671 6.54433 26.8671 6.80197C26.8671 14.6526 20.7219 23.7067 9.48521 23.7067V23.702C6.16585 23.7067 2.91545 22.782 0.121094 21.0384C0.603755 21.0949 1.08884 21.1231 1.57513 21.1243C4.32593 21.1267 6.99811 20.229 9.16222 18.5761C6.54811 18.5279 4.25577 16.8702 3.45496 14.4502C4.37069 14.622 5.31424 14.5867 6.21303 14.3479C3.36303 13.7879 1.31263 11.3526 1.31263 8.52433V8.44903C2.16182 8.90903 3.11263 9.16433 4.08521 9.19256C1.40093 7.44785 0.573513 3.97491 2.19448 1.25962C5.29609 4.97138 9.8723 7.22785 14.7848 7.46668C14.2925 5.40315 14.965 3.2408 16.5521 1.79021C19.0126 -0.459204 22.8824 -0.34391 25.1953 2.04785C26.5634 1.7855 27.8747 1.29727 29.0747 0.605502C28.6187 1.9808 27.6642 3.14903 26.3892 3.89138C27.6001 3.75256 28.7832 3.43727 29.8973 2.95609C29.0771 4.15138 28.0441 5.19256 26.8489 6.03374Z" fill="#1D9BF0"/>
</g>
<defs>
<clipPath id="clip0_3339_5030">
<rect width="30" height="24" fill="white"/>
</clipPath>
</defs>
</svg>
