<svg width="30" height="30" viewBox="0 0 30 30" fill="none" xmlns="http://www.w3.org/2000/svg">
<g clip-path="url(#clip0_3339_5018)">
<g filter="url(#filter0_f_3339_5018)">
<path d="M9.33716 23.6591L9.71983 23.8854C11.327 24.8374 13.1699 25.341 15.0491 25.3419H15.0531C20.8243 25.3419 25.5211 20.6551 25.5235 14.8946C25.5245 12.1031 24.4365 9.47804 22.4596 7.50342C21.49 6.52958 20.3365 5.75738 19.0659 5.23149C17.7952 4.7056 16.4327 4.43648 15.0572 4.43971C9.28151 4.43971 4.58451 9.12601 4.58245 14.8862C4.57961 16.8531 5.13456 18.7807 6.18316 20.4461L6.43228 20.8412L5.37433 24.6961L9.33716 23.6591ZM2.34961 27.6826L4.13695 21.1693C3.03465 19.2632 2.45474 17.1007 2.45542 14.8853C2.45833 7.95474 8.10919 2.31641 15.0532 2.31641C18.423 2.31812 21.5859 3.62696 23.9646 6.00284C26.3433 8.37871 27.6521 11.5368 27.6509 14.8954C27.6478 21.8255 21.9961 27.4649 15.0531 27.4649H15.0476C12.9394 27.464 10.8678 26.9361 9.02777 25.9347L2.34961 27.6826Z" fill="#B3B3B3"/>
</g>
<path d="M2.2207 27.5537L4.00804 21.0404C2.90385 19.1297 2.32385 16.9622 2.32652 14.7564C2.32943 7.82583 7.98028 2.1875 14.9243 2.1875C18.2941 2.18921 21.457 3.49805 23.8357 5.87393C26.2144 8.24981 27.5232 11.4078 27.522 14.7665C27.5189 21.6966 21.8672 27.3359 14.9242 27.3359H14.9187C12.8105 27.3351 10.7389 26.8072 8.89886 25.8058L2.2207 27.5537Z" fill="white"/>
<path d="M14.9279 4.31058C9.15219 4.31058 4.45519 8.99688 4.45314 14.7571C4.45029 16.724 5.00525 18.6516 6.05385 20.3169L6.30297 20.7122L5.24502 24.5671L9.20801 23.53L9.59068 23.7563C11.1979 24.7083 13.0407 25.2117 14.92 25.2128H14.9239C20.6951 25.2128 25.3921 20.5259 25.3944 14.7654C25.3987 13.3924 25.1302 12.0322 24.6042 10.7635C24.0783 9.49481 23.3055 8.34284 22.3304 7.37428C21.3608 6.40043 20.2073 5.62821 18.9366 5.10232C17.666 4.57644 16.3034 4.30733 14.9279 4.31058Z" fill="url(#paint0_linear_3339_5018)"/>
<path fill-rule="evenodd" clip-rule="evenodd" d="M11.7743 9.50127C11.5383 8.97817 11.2901 8.96758 11.0659 8.95852L10.4626 8.95117C10.2527 8.95117 9.9116 9.02978 9.62327 9.34422C9.33494 9.65865 8.52148 10.4186 8.52148 11.9643C8.52148 13.51 9.64946 15.0036 9.80664 15.2134C9.96382 15.4233 11.9842 18.6963 15.1837 19.9556C17.8426 21.0021 18.3836 20.794 18.9609 20.7417C19.5383 20.6894 20.8233 19.9818 21.0854 19.2481C21.3475 18.5145 21.3477 17.886 21.2691 17.7545C21.1905 17.6231 20.9806 17.545 20.6656 17.3878C20.3505 17.2306 18.8033 16.4707 18.5148 16.3657C18.2262 16.2608 18.0165 16.2087 17.8064 16.5231C17.5963 16.8376 16.9938 17.5449 16.8101 17.7545C16.6264 17.9642 16.443 17.9905 16.128 17.8335C15.8129 17.6765 14.7993 17.3446 13.5967 16.2743C12.661 15.4416 12.0294 14.4131 11.8455 14.0989C11.6616 13.7846 11.826 13.6144 11.9838 13.4579C12.1251 13.3171 12.2985 13.091 12.4562 12.9076C12.6139 12.7242 12.6658 12.5932 12.7706 12.3838C12.8754 12.1745 12.8231 11.9906 12.7444 11.8336C12.6656 11.6765 12.054 10.1226 11.7743 9.50127Z" fill="white"/>
</g>
<defs>
<filter id="filter0_f_3339_5018" x="-4.71239" y="-4.74559" width="39.4248" height="39.4892" filterUnits="userSpaceOnUse" color-interpolation-filters="sRGB">
<feFlood flood-opacity="0" result="BackgroundImageFix"/>
<feBlend mode="normal" in="SourceGraphic" in2="BackgroundImageFix" result="shape"/>
<feGaussianBlur stdDeviation="3.531" result="effect1_foregroundBlur_3339_5018"/>
</filter>
<linearGradient id="paint0_linear_3339_5018" x1="14.7106" y1="5.56491" x2="14.8163" y2="23.4271" gradientUnits="userSpaceOnUse">
<stop stop-color="#57D163"/>
<stop offset="1" stop-color="#23B33A"/>
</linearGradient>
<clipPath id="clip0_3339_5018">
<rect width="30" height="30" fill="white"/>
</clipPath>
</defs>
</svg>
